{"glyphs":{"0":{"ha":973,"x_min":0,"x_max":0,"o":"m 486 990 b 915 486 725 990 915 801 b 486 -17 915 172 725 -17 b 58 486 248 -17 58 172 b 486 990 58 801 248 990 m 486 774 b 292 486 377 774 292 675 b 486 198 292 297 377 198 b 681 486 596 198 681 297 b 486 774 681 675 596 774 "},"1":{"ha":565,"x_min":0,"x_max":0,"o":"m 472 0 l 247 0 l 247 677 l 29 594 l 29 816 l 472 988 "},"2":{"ha":793,"x_min":0,"x_max":0,"o":"m 38 819 b 393 990 99 892 207 990 b 731 676 598 990 731 865 b 585 385 731 560 685 486 l 408 209 l 752 209 l 752 0 l 88 0 l 88 176 l 425 506 b 497 653 472 552 497 600 b 369 774 497 726 443 774 b 172 666 281 774 224 723 "},"3":{"ha":798,"x_min":0,"x_max":0,"o":"m 369 990 b 728 709 580 990 728 878 b 587 490 728 608 676 532 b 748 269 688 449 748 372 b 374 -17 748 75 567 -17 b 29 125 226 -17 106 34 l 158 272 b 363 184 212 215 285 184 b 514 288 447 184 514 217 b 345 392 514 356 438 392 l 235 392 l 235 590 l 347 590 b 496 690 431 590 496 624 b 359 788 496 754 438 788 b 163 696 269 788 204 745 l 33 842 b 369 990 106 927 211 990 "},"4":{"ha":823,"x_min":0,"x_max":0,"o":"m 677 375 l 799 375 l 799 166 l 677 166 l 677 0 l 452 0 l 452 166 l 24 166 l 24 324 l 341 972 l 588 972 l 292 375 l 452 375 l 452 475 l 527 631 l 677 631 "},"5":{"ha":812,"x_min":0,"x_max":0,"o":"m 701 765 l 320 765 l 316 613 l 412 613 b 759 319 637 613 759 492 b 390 -18 759 111 601 -18 b 38 117 240 -18 117 38 l 150 283 b 388 188 198 237 294 188 b 526 304 478 188 526 234 b 354 414 526 365 483 414 l 114 414 l 126 972 l 701 972 "},"6":{"ha":830,"x_min":0,"x_max":0,"o":"m 428 644 b 444 645 433 645 438 645 b 792 322 661 645 792 501 b 413 -17 792 126 628 -17 b 35 315 198 -17 35 123 b 132 586 35 407 70 494 l 390 972 l 661 972 m 413 455 b 271 319 331 455 271 398 b 413 183 271 240 331 183 b 556 319 495 183 556 240 b 413 455 556 398 495 455 "},"7":{"ha":767,"x_min":0,"x_max":0,"o":"m 738 796 l 355 0 l 87 0 l 470 763 l 35 763 l 35 972 l 738 972 "},"8":{"ha":878,"x_min":0,"x_max":0,"o":"m 439 990 b 804 709 640 990 804 885 b 658 491 804 599 741 530 b 828 265 753 453 828 383 b 439 -17 828 88 653 -17 b 49 265 225 -17 49 88 b 219 491 49 383 124 453 b 74 709 136 530 74 599 b 439 990 74 885 238 990 m 439 404 b 294 290 361 404 294 363 b 439 178 294 217 361 178 b 583 290 517 178 583 217 b 439 404 583 363 517 404 m 439 790 b 314 688 369 790 314 754 b 439 582 314 619 369 582 b 563 688 508 582 563 619 b 439 790 563 754 508 790 "},"9":{"ha":830,"x_min":0,"x_max":0,"o":"m 401 327 l 386 327 b 38 651 169 327 38 471 b 417 990 38 847 201 990 b 795 657 631 990 795 849 b 697 386 795 565 759 478 l 439 0 l 169 0 m 417 517 b 558 653 499 517 558 574 b 417 789 558 733 499 789 b 274 653 335 789 274 733 b 417 517 274 574 335 517 "},"\u0000":{"ha":0,"x_min":0,"x_max":0,"o":""},"\r":{"ha":312,"x_min":0,"x_max":0,"o":""}," ":{"ha":312,"x_min":0,"x_max":0,"o":""},"!":{"ha":403,"x_min":0,"x_max":0,"o":"m 303 348 l 100 348 l 74 972 l 330 972 m 202 269 b 344 126 278 269 344 203 b 202 -18 344 49 278 -18 b 58 126 125 -18 58 49 b 202 269 58 203 125 269 "},"\"":{"ha":787,"x_min":0,"x_max":0,"o":"m 341 1000 l 341 549 l 124 549 l 124 1000 m 663 1000 l 663 549 l 446 549 l 446 1000 "},"#":{"ha":1015,"x_min":0,"x_max":0,"o":"m 295 761 l 340 972 l 538 972 l 492 761 l 638 761 l 683 972 l 881 972 l 835 761 l 962 761 l 923 579 l 797 579 l 758 398 l 884 398 l 846 216 l 719 216 l 674 0 l 476 0 l 522 216 l 376 216 l 331 0 l 133 0 l 179 216 l 53 216 l 91 398 l 218 398 l 256 579 l 130 579 l 169 761 m 415 398 l 560 398 l 599 579 l 453 579 "},"$":{"ha":972,"x_min":0,"x_max":0,"o":"m 776 685 b 507 763 710 724 615 763 b 344 681 412 763 346 737 b 541 589 343 621 428 608 l 587 581 b 885 324 767 551 885 470 b 587 20 885 149 758 47 l 587 -114 l 413 -114 l 413 17 b 78 129 285 28 164 66 l 187 304 b 494 208 274 247 378 208 b 653 293 584 208 652 235 b 462 385 655 350 587 366 l 413 393 b 114 667 222 423 110 507 b 413 954 117 824 238 929 l 413 1081 l 587 1081 l 587 954 b 874 861 703 942 788 908 "},"%":{"ha":1371,"x_min":0,"x_max":0,"o":"m 311 990 b 585 722 468 990 585 876 b 311 454 585 568 468 454 b 38 722 155 454 38 568 b 311 990 38 876 155 990 m 311 828 b 210 722 253 828 210 783 b 311 616 210 662 253 616 b 413 722 370 616 413 662 b 311 828 413 783 370 828 m 443 0 l 231 0 l 923 972 l 1134 972 m 1059 518 b 1333 250 1216 518 1333 404 b 1059 -18 1333 96 1216 -18 b 786 250 903 -18 786 96 b 1059 518 786 401 903 518 m 1059 356 b 958 250 1001 356 958 310 b 1059 144 958 190 1001 144 b 1160 250 1118 144 1160 190 b 1059 356 1160 311 1118 356 "},"&":{"ha":1036,"x_min":0,"x_max":0,"o":"m 737 0 l 648 85 b 367 -18 576 27 485 -18 b 49 243 166 -18 49 87 b 213 506 49 355 124 438 b 101 735 139 584 101 646 b 403 990 101 885 222 990 b 704 736 583 990 704 888 b 524 492 704 636 618 560 l 647 372 l 792 555 l 949 440 l 787 235 l 1028 0 m 389 175 b 509 220 433 175 472 192 l 352 372 b 282 265 310 337 282 302 b 389 175 282 210 323 175 m 319 727 b 388 624 319 698 334 677 b 489 733 447 663 489 697 b 403 801 489 772 456 801 b 319 727 350 801 319 774 "},"'":{"ha":465,"x_min":0,"x_max":0,"o":"m 341 1000 l 341 549 l 124 549 l 124 1000 "},"(":{"ha":582,"x_min":0,"x_max":0,"o":"m 547 822 b 285 394 367 736 285 579 b 547 -33 285 210 367 53 l 482 -222 b 58 394 233 -133 58 99 b 482 1011 58 690 233 922 "},")":{"ha":582,"x_min":0,"x_max":0,"o":"m 35 -32 b 297 395 215 53 297 210 b 35 822 297 580 215 737 l 100 1012 b 524 395 349 922 524 690 b 100 -222 524 100 349 -132 "},"*":{"ha":659,"x_min":0,"x_max":0,"o":"m 250 836 l 244 1000 l 415 1000 l 408 836 l 562 892 l 615 731 l 457 686 l 558 558 l 421 458 l 329 594 l 239 458 l 101 558 l 201 686 l 44 731 l 97 892 "},"+":{"ha":833,"x_min":0,"x_max":0,"o":"m 326 42 l 326 280 l 90 280 l 90 458 l 326 458 l 326 697 l 508 697 l 508 458 l 744 458 l 744 280 l 508 280 l 508 42 "},",":{"ha":392,"x_min":0,"x_max":0,"o":"m 340 252 l 228 -199 l 47 -199 l 102 252 "},"-":{"ha":541,"x_min":0,"x_max":0,"o":"m 479 276 l 62 276 l 62 462 l 479 462 "},".":{"ha":403,"x_min":0,"x_max":0,"o":"m 202 279 b 350 132 281 279 350 211 b 202 -18 350 51 281 -18 b 53 132 122 -18 53 51 b 202 279 53 211 122 279 "},"/":{"ha":741,"x_min":0,"x_max":0,"o":"m 190 -139 l -35 -139 l 554 1069 l 779 1069 "},":":{"ha":403,"x_min":0,"x_max":0,"o":"m 202 700 b 350 552 281 700 350 631 b 202 403 350 472 281 403 b 53 552 122 403 53 472 b 202 700 53 631 122 700 m 202 279 b 350 132 281 279 350 211 b 202 -18 350 51 281 -18 b 53 132 122 -18 53 51 b 202 279 53 211 122 279 "},";":{"ha":392,"x_min":0,"x_max":0,"o":"m 208 700 b 356 552 288 700 356 631 b 208 403 356 472 288 403 b 59 552 128 403 59 472 b 208 700 59 631 128 700 m 340 252 l 228 -199 l 47 -199 l 102 252 "},"<":{"ha":833,"x_min":0,"x_max":0,"o":"m 703 6 l 131 271 l 131 468 l 703 732 l 703 526 l 326 369 l 703 213 "},"=":{"ha":833,"x_min":0,"x_max":0,"o":"m 744 124 l 90 124 l 90 303 l 744 303 m 744 435 l 90 435 l 90 615 l 744 615 "},">":{"ha":833,"x_min":0,"x_max":0,"o":"m 131 732 l 703 467 l 703 270 l 131 6 l 131 213 l 508 369 l 131 526 "},"?":{"ha":619,"x_min":0,"x_max":0,"o":"m 106 343 l 106 592 l 176 592 b 356 683 296 592 356 622 b 178 772 356 742 297 771 b 77 766 143 772 106 769 l 65 983 b 215 992 106 988 160 992 b 596 705 455 992 596 881 b 314 415 596 551 495 450 l 309 343 m 207 269 b 349 127 283 269 349 203 b 207 -18 349 49 283 -18 b 63 126 130 -18 63 49 b 207 269 63 203 130 269 "},"@":{"ha":1316,"x_min":0,"x_max":0,"o":"m 917 301 b 974 215 917 244 933 215 b 1070 380 1032 215 1070 265 b 661 763 1070 601 901 763 b 251 347 420 763 251 594 b 651 -69 251 100 416 -69 b 889 1 740 -69 819 -52 l 988 -131 b 651 -231 888 -204 765 -231 b 67 347 309 -231 67 14 b 661 925 67 680 313 925 b 1249 381 1008 925 1249 688 b 965 58 1249 191 1138 58 b 774 151 863 58 804 100 b 614 73 742 106 692 73 b 374 347 467 73 374 194 b 608 621 374 499 471 621 b 749 553 674 621 719 593 l 749 606 l 917 606 m 651 458 b 553 347 594 458 553 411 b 651 235 553 283 594 235 b 749 347 708 235 749 282 b 651 458 749 411 708 458 "},"A":{"ha":1040,"x_min":0,"x_max":0,"o":"m 1031 0 l 784 0 l 710 204 l 324 204 l 251 0 l 8 0 l 381 972 l 658 972 m 399 414 l 635 414 l 517 742 "},"B":{"ha":948,"x_min":0,"x_max":0,"o":"m 506 972 b 880 697 752 972 880 876 b 746 492 880 601 824 526 b 900 278 832 461 900 378 b 531 0 900 100 777 0 l 88 0 l 88 972 m 320 392 l 320 194 l 519 194 b 660 294 608 194 660 221 b 519 392 660 365 608 392 m 320 777 l 320 585 l 501 585 b 638 682 584 585 638 610 b 501 777 638 753 584 777 "},"C":{"ha":1033,"x_min":0,"x_max":0,"o":"m 560 990 b 992 756 745 990 909 903 l 788 640 b 557 768 738 722 658 768 b 290 486 403 768 290 653 b 558 204 290 306 414 204 b 792 332 656 204 737 249 l 983 197 b 560 -18 894 65 746 -18 b 48 486 260 -18 48 192 b 560 990 48 781 260 990 "},"D":{"ha":1057,"x_min":0,"x_max":0,"o":"m 504 972 b 1009 486 808 972 1009 779 b 504 0 1009 193 808 0 l 88 0 l 88 972 m 320 758 l 320 215 l 499 215 b 767 486 680 215 767 329 b 499 758 767 645 680 758 "},"E":{"ha":903,"x_min":0,"x_max":0,"o":"m 833 0 l 88 0 l 88 972 l 830 972 l 830 763 l 320 763 l 320 595 l 800 595 l 800 387 l 320 387 l 320 209 l 833 209 "},"F":{"ha":876,"x_min":0,"x_max":0,"o":"m 790 372 l 320 372 l 320 0 l 88 0 l 88 972 l 823 972 l 823 763 l 320 763 l 320 581 l 790 581 "},"G":{"ha":1083,"x_min":0,"x_max":0,"o":"m 565 990 b 927 849 719 990 842 938 l 762 687 b 554 772 713 739 644 772 b 287 486 399 772 287 656 b 555 194 287 299 410 194 b 801 370 693 194 774 256 l 564 370 l 564 549 l 1031 549 b 1035 476 1034 524 1035 500 b 563 -17 1035 165 813 -17 b 48 486 274 -17 48 183 b 565 990 48 781 263 990 "},"H":{"ha":1049,"x_min":0,"x_max":0,"o":"m 320 598 l 729 598 l 729 972 l 961 972 l 961 0 l 729 0 l 729 383 l 320 383 l 320 0 l 88 0 l 88 972 l 320 972 "},"I":{"ha":408,"x_min":0,"x_max":0,"o":"m 320 0 l 88 0 l 88 972 l 320 972 "},"J":{"ha":769,"x_min":0,"x_max":0,"o":"m 686 365 b 327 -18 686 110 540 -18 b 17 103 176 -18 73 42 l 138 278 b 310 205 176 240 231 205 b 454 385 400 205 454 257 l 454 972 l 686 972 "},"K":{"ha":988,"x_min":0,"x_max":0,"o":"m 402 385 l 320 385 l 320 0 l 88 0 l 88 972 l 320 972 l 320 594 l 404 594 l 683 972 l 969 972 l 592 498 l 1000 0 l 708 0 "},"L":{"ha":826,"x_min":0,"x_max":0,"o":"m 809 0 l 88 0 l 88 972 l 320 972 l 320 215 l 809 215 "},"M":{"ha":1276,"x_min":0,"x_max":0,"o":"m 1188 0 l 956 0 l 956 665 l 761 92 l 515 92 l 320 663 l 320 0 l 88 0 l 88 972 l 417 972 l 638 355 l 858 972 l 1188 972 "},"N":{"ha":1074,"x_min":0,"x_max":0,"o":"m 986 0 l 763 0 l 320 593 l 320 0 l 88 0 l 88 972 l 310 972 l 753 379 l 753 972 l 986 972 "},"O":{"ha":1121,"x_min":0,"x_max":0,"o":"m 560 990 b 1073 486 860 990 1073 776 b 560 -18 1073 196 860 -18 b 48 486 260 -18 48 196 b 560 990 48 776 260 990 m 560 768 b 290 486 402 768 290 653 b 560 204 290 319 402 204 b 831 486 719 204 831 319 b 560 768 831 653 719 768 "},"P":{"ha":915,"x_min":0,"x_max":0,"o":"m 320 328 l 320 0 l 88 0 l 88 972 l 505 972 b 872 648 745 972 872 843 b 507 328 872 456 745 328 m 320 762 l 320 535 l 501 535 b 636 648 585 535 636 574 b 501 762 636 722 585 762 "},"Q":{"ha":1136,"x_min":0,"x_max":0,"o":"m 560 990 b 1073 486 860 990 1073 776 b 987 208 1073 377 1041 285 l 1140 0 l 867 0 l 824 57 b 560 -18 750 10 663 -18 b 48 486 260 -18 48 196 b 560 990 48 776 260 990 m 560 768 b 290 486 402 768 290 653 b 560 204 290 319 402 204 b 689 233 608 204 651 215 l 535 439 l 788 439 l 819 397 b 831 486 827 424 831 454 b 560 768 831 653 719 768 "},"R":{"ha":935,"x_min":0,"x_max":0,"o":"m 511 972 b 879 661 751 972 879 853 b 608 371 879 507 782 399 l 887 0 l 610 0 l 354 364 l 320 364 l 320 0 l 88 0 l 88 972 m 320 762 l 320 559 l 508 559 b 643 661 592 559 643 592 b 508 762 643 730 590 762 "},"S":{"ha":941,"x_min":0,"x_max":0,"o":"m 772 697 b 493 778 702 738 607 778 b 340 691 405 778 340 749 b 540 597 340 630 433 615 l 581 590 b 888 310 769 557 888 469 b 481 -18 888 78 689 -18 b 53 106 319 -18 160 24 l 169 294 b 483 192 243 244 346 192 b 637 283 570 192 637 222 b 444 377 637 341 572 358 l 396 385 b 91 681 196 416 88 506 b 483 990 94 870 256 990 b 875 887 614 990 728 968 "},"T":{"ha":842,"x_min":0,"x_max":0,"o":"m 825 757 l 538 757 l 538 0 l 306 0 l 306 757 l 17 757 l 17 972 l 825 972 "},"U":{"ha":1009,"x_min":0,"x_max":0,"o":"m 930 392 b 504 -18 930 126 769 -18 b 79 392 240 -18 79 126 l 79 972 l 312 972 l 312 401 b 504 205 312 268 388 205 b 697 401 621 205 697 268 l 697 972 l 930 972 "},"V":{"ha":1012,"x_min":0,"x_max":0,"o":"m 644 0 l 368 0 l 8 972 l 255 972 l 508 239 l 762 972 l 1003 972 "},"W":{"ha":1513,"x_min":0,"x_max":0,"o":"m 1216 0 l 940 0 l 756 627 l 573 0 l 297 0 l 13 972 l 253 972 l 438 276 l 633 972 l 883 972 l 1078 274 l 1263 972 l 1499 972 "},"X":{"ha":942,"x_min":0,"x_max":0,"o":"m 612 491 l 930 0 l 664 0 l 469 316 l 275 0 l 12 0 l 330 491 l 16 972 l 282 972 l 472 663 l 663 972 l 926 972 "},"Y":{"ha":971,"x_min":0,"x_max":0,"o":"m 605 374 l 605 0 l 372 0 l 372 373 l 3 972 l 272 972 l 490 584 l 707 972 l 968 972 "},"Z":{"ha":892,"x_min":0,"x_max":0,"o":"m 839 790 l 361 209 l 839 209 l 839 0 l 53 0 l 53 182 l 530 763 l 53 763 l 53 972 l 839 972 "},"[":{"ha":525,"x_min":0,"x_max":0,"o":"m 490 -183 l 88 -183 l 88 972 l 490 972 l 490 778 l 308 778 l 308 12 l 490 12 "},"\\":{"ha":741,"x_min":0,"x_max":0,"o":"m -38 1069 l 187 1069 l 776 -139 l 551 -139 "},"]":{"ha":525,"x_min":0,"x_max":0,"o":"m 35 972 l 437 972 l 437 -183 l 35 -183 l 35 12 l 217 12 l 217 778 l 35 778 "},"^":{"ha":833,"x_min":0,"x_max":0,"o":"m 70 441 l 318 972 l 515 972 l 763 441 l 550 441 l 414 765 l 278 441 "},"_":{"ha":653,"x_min":0,"x_max":0,"o":"m 656 -228 l -3 -228 l -3 -64 l 656 -64 "},"`":{"ha":694,"x_min":0,"x_max":0,"o":"m 342 767 l 149 998 l 399 998 l 546 767 "},"a":{"ha":839,"x_min":0,"x_max":0,"o":"m 763 0 l 553 0 l 553 74 b 357 -18 512 20 449 -18 b 40 342 175 -18 40 140 b 358 700 40 542 175 700 b 553 608 449 700 512 661 l 553 681 l 763 681 m 409 497 b 264 341 322 497 264 430 b 409 185 264 252 322 185 b 555 341 494 185 555 251 b 409 497 555 431 494 497 "},"b":{"ha":839,"x_min":0,"x_max":0,"o":"m 481 700 b 799 342 663 700 799 542 b 481 -18 799 140 663 -18 b 286 73 389 -18 327 19 l 286 0 l 76 0 l 76 1000 l 293 1000 l 293 616 b 481 700 334 665 394 700 m 429 497 b 284 341 344 497 284 431 b 429 185 284 251 344 185 b 575 341 517 185 575 252 b 429 497 575 430 517 497 "},"c":{"ha":721,"x_min":0,"x_max":0,"o":"m 408 700 b 699 551 534 700 633 644 l 528 432 b 403 497 494 476 456 497 b 263 341 327 497 263 439 b 401 185 263 242 326 185 b 530 251 453 185 496 208 l 699 130 b 408 -18 634 38 534 -18 b 40 341 190 -18 40 133 b 408 700 40 549 190 700 "},"d":{"ha":838,"x_min":0,"x_max":0,"o":"m 358 700 b 546 616 444 700 505 665 l 546 1000 l 763 1000 l 763 0 l 553 0 l 553 74 b 357 -18 512 20 449 -18 b 40 342 175 -18 40 140 b 358 700 40 542 175 700 m 409 497 b 264 341 322 497 264 430 b 409 185 264 252 322 185 b 555 341 494 185 555 251 b 409 497 555 431 494 497 "},"e":{"ha":771,"x_min":0,"x_max":0,"o":"m 390 700 b 731 341 592 700 730 554 b 726 274 731 319 729 288 l 265 274 b 410 165 283 199 335 165 b 559 224 461 165 516 185 l 699 94 b 399 -18 628 23 525 -18 b 40 337 185 -18 40 124 b 390 700 40 551 183 700 m 390 515 b 265 411 323 515 282 478 l 513 411 b 390 515 496 479 453 515 "},"f":{"ha":594,"x_min":0,"x_max":0,"o":"m 549 489 l 358 489 l 358 0 l 140 0 l 140 489 l 23 489 l 23 681 l 140 681 l 140 734 b 400 1018 140 917 241 1018 b 630 946 506 1018 576 986 l 535 785 b 429 815 503 802 471 815 b 358 729 381 815 358 788 l 358 681 l 549 681 "},"g":{"ha":833,"x_min":0,"x_max":0,"o":"m 356 700 b 547 610 446 700 506 663 l 547 681 l 757 681 l 757 65 b 388 -292 757 -158 610 -292 b 76 -205 274 -292 158 -262 l 153 -32 b 372 -101 220 -79 292 -101 b 544 56 460 -101 544 -53 l 544 98 b 356 12 503 47 444 12 b 40 356 174 12 40 163 b 356 700 40 549 174 700 m 408 501 b 265 356 323 501 265 439 b 408 210 265 273 323 210 b 547 356 490 210 547 272 b 408 501 547 440 490 501 "},"h":{"ha":801,"x_min":0,"x_max":0,"o":"m 294 610 b 488 700 337 672 403 700 b 729 447 624 700 729 605 l 729 0 l 512 0 l 512 370 b 404 496 512 451 472 496 b 294 367 344 496 294 455 l 294 0 l 76 0 l 76 1001 l 294 1001 "},"i":{"ha":369,"x_min":0,"x_max":0,"o":"m 294 0 l 76 0 l 76 681 l 294 681 m 184 1022 b 314 891 257 1022 314 965 b 184 762 314 818 257 762 b 54 891 110 762 54 818 b 184 1022 54 965 110 1022 "},"j":{"ha":370,"x_min":0,"x_max":0,"o":"m 294 -45 b 72 -294 294 -203 206 -294 b -33 -278 40 -294 -8 -287 l -12 -85 b 32 -92 1 -90 15 -92 b 78 -31 58 -92 78 -76 l 78 681 l 294 681 m 185 1022 b 315 891 258 1022 315 965 b 185 762 315 818 258 762 b 55 891 111 762 55 818 b 185 1022 55 965 111 1022 "},"k":{"ha":767,"x_min":0,"x_max":0,"o":"m 294 456 l 346 456 l 507 681 l 770 681 l 518 360 l 771 0 l 508 0 l 340 263 l 294 263 l 294 0 l 76 0 l 76 1000 l 294 1000 "},"l":{"ha":369,"x_min":0,"x_max":0,"o":"m 294 0 l 76 0 l 76 1000 l 294 1000 "},"m":{"ha":1237,"x_min":0,"x_max":0,"o":"m 911 700 b 1165 447 1067 700 1165 604 l 1165 0 l 948 0 l 948 370 b 840 496 948 451 908 496 b 729 367 780 496 729 455 l 729 0 l 512 0 l 512 370 b 404 496 512 451 472 496 b 294 367 344 496 294 455 l 294 0 l 76 0 l 76 681 l 285 681 l 285 596 b 488 700 328 667 397 700 b 695 586 577 700 653 659 b 911 700 741 665 817 700 "},"n":{"ha":801,"x_min":0,"x_max":0,"o":"m 488 700 b 729 447 624 700 729 605 l 729 0 l 512 0 l 512 370 b 404 496 512 451 472 496 b 294 367 344 496 294 455 l 294 0 l 76 0 l 76 681 l 285 681 l 285 596 b 488 700 328 667 397 700 "},"o":{"ha":820,"x_min":0,"x_max":0,"o":"m 410 700 b 780 341 623 700 780 547 b 410 -18 780 135 623 -18 b 40 341 197 -18 40 135 b 410 700 40 547 197 700 m 410 497 b 263 341 325 497 263 433 b 410 185 263 249 325 185 b 558 341 495 185 558 249 b 410 497 558 433 495 497 "},"p":{"ha":839,"x_min":0,"x_max":0,"o":"m 481 700 b 799 342 663 700 799 542 b 481 -18 799 140 663 -18 b 293 65 394 -18 334 16 l 293 -278 l 76 -278 l 76 681 l 286 681 l 286 608 b 481 700 327 661 389 700 m 429 497 b 284 341 344 497 284 431 b 429 185 284 251 344 185 b 575 341 517 185 575 252 b 429 497 575 430 517 497 "},"q":{"ha":838,"x_min":0,"x_max":0,"o":"m 358 700 b 553 608 449 700 512 661 l 553 681 l 763 681 l 763 -278 l 546 -278 l 546 65 b 357 -18 505 16 444 -18 b 40 342 175 -18 40 140 b 358 700 40 542 175 700 m 409 497 b 264 341 322 497 264 430 b 409 185 264 252 322 185 b 555 341 494 185 555 251 b 409 497 555 431 494 497 "},"r":{"ha":570,"x_min":0,"x_max":0,"o":"m 471 700 b 547 690 503 700 531 694 l 527 473 b 418 491 498 483 457 491 b 294 368 341 491 294 453 l 294 0 l 76 0 l 76 681 l 285 681 l 285 603 b 471 700 324 669 388 700 "},"s":{"ha":706,"x_min":0,"x_max":0,"o":"m 589 472 b 365 524 522 500 434 524 b 285 483 308 524 285 508 b 395 436 285 453 328 447 l 445 428 b 668 222 591 406 668 336 b 353 -17 668 72 551 -17 b 38 54 236 -17 116 3 l 114 222 b 354 158 182 182 260 158 b 449 203 422 158 449 174 b 342 251 449 229 419 240 l 302 257 b 62 472 138 281 62 349 b 356 699 62 617 171 699 b 649 641 467 699 538 684 "},"t":{"ha":666,"x_min":0,"x_max":0,"o":"m 600 489 l 367 489 l 367 290 b 464 185 367 211 409 185 b 582 227 504 185 548 207 l 657 58 b 415 -18 593 13 525 -18 b 150 262 233 -18 150 91 l 150 489 l 23 489 l 23 681 l 150 681 l 150 880 l 367 880 l 367 681 l 600 681 "},"u":{"ha":801,"x_min":0,"x_max":0,"o":"m 729 292 b 401 -18 729 78 582 -18 b 72 292 219 -18 72 78 l 72 681 l 289 681 l 289 311 b 401 185 289 224 335 185 b 513 311 465 185 513 224 l 513 681 l 729 681 "},"v":{"ha":790,"x_min":0,"x_max":0,"o":"m 521 0 l 273 0 l 9 681 l 246 681 l 398 237 l 551 681 l 781 681 "},"w":{"ha":1245,"x_min":0,"x_max":0,"o":"m 870 247 l 1003 681 l 1231 681 l 997 0 l 754 0 l 622 408 l 490 0 l 249 0 l 14 681 l 245 681 l 376 249 l 514 681 l 731 681 "},"x":{"ha":797,"x_min":0,"x_max":0,"o":"m 542 344 l 782 0 l 529 0 l 395 196 l 265 0 l 15 0 l 258 344 l 23 681 l 277 681 l 403 488 l 528 681 l 778 681 "},"y":{"ha":805,"x_min":0,"x_max":0,"o":"m 297 -279 l 60 -279 l 293 150 l 6 681 l 256 681 l 410 375 l 563 681 l 800 681 "},"z":{"ha":722,"x_min":0,"x_max":0,"o":"m 661 521 l 360 192 l 668 192 l 668 0 l 53 0 l 53 156 l 361 489 l 65 489 l 65 681 l 661 681 "},"{":{"ha":612,"x_min":0,"x_max":0,"o":"m 519 784 b 415 672 453 784 412 744 l 417 616 b 269 395 422 510 390 433 b 417 174 390 357 422 279 l 415 118 b 519 6 412 45 453 6 l 576 6 l 576 -183 l 490 -183 b 197 125 289 -183 189 -62 l 199 185 b 53 303 203 261 147 303 l 53 487 b 199 604 147 487 203 528 l 197 665 b 490 972 189 853 289 972 l 576 972 l 576 784 "},"|":{"ha":465,"x_min":0,"x_max":0,"o":"m 341 -184 l 124 -184 l 124 972 l 341 972 "},"}":{"ha":612,"x_min":0,"x_max":0,"o":"m 92 6 b 197 118 158 6 200 45 l 194 174 b 343 394 190 279 222 357 b 194 616 222 433 190 510 l 197 672 b 92 783 200 744 158 783 l 35 783 l 35 972 l 122 972 b 415 665 323 972 423 852 l 413 604 b 559 487 409 528 465 487 l 559 303 b 413 185 465 303 409 261 l 415 125 b 122 -183 423 -63 323 -183 l 35 -183 l 35 6 "},"~":{"ha":833,"x_min":0,"x_max":0,"o":"m 763 363 b 544 249 710 290 628 249 b 284 319 421 249 356 319 b 167 250 246 319 208 294 l 72 379 b 289 493 124 452 206 493 b 549 424 413 493 478 424 b 667 492 588 424 625 447 "}," ":{"ha":312,"x_min":0,"x_max":0,"o":""},"¡":{"ha":403,"x_min":0,"x_max":0,"o":"m 99 334 l 303 334 l 329 -290 l 73 -290 m 201 413 b 58 556 124 413 58 479 b 201 700 58 633 124 700 b 344 556 278 700 344 633 b 201 413 344 479 278 413 "},"¢":{"ha":972,"x_min":0,"x_max":0,"o":"m 153 486 b 429 833 153 661 262 796 l 429 972 l 603 972 l 603 837 b 819 699 694 819 767 770 l 656 581 b 522 648 619 625 578 648 b 369 486 439 648 369 587 b 521 324 369 385 438 324 b 658 392 576 324 622 349 l 819 273 b 603 135 767 201 694 153 l 603 0 l 429 0 l 429 139 b 153 486 262 176 153 310 "},"£":{"ha":972,"x_min":0,"x_max":0,"o":"m 847 0 l 100 0 l 100 209 l 207 209 l 207 400 l 100 400 l 100 572 l 207 572 l 207 604 b 592 990 207 864 383 990 b 870 887 701 990 801 956 l 721 727 b 592 774 688 758 643 774 b 432 600 504 774 432 724 l 432 572 l 756 572 l 756 400 l 432 400 l 432 209 l 847 209 "},"¤":{"ha":972,"x_min":0,"x_max":0,"o":"m 197 894 l 308 783 b 487 833 360 815 422 833 b 665 784 551 833 613 815 l 775 894 l 895 775 l 785 665 b 834 486 816 613 834 551 b 785 308 834 421 816 360 l 896 197 l 776 78 l 665 188 b 487 139 613 156 551 139 b 308 188 422 139 360 157 l 198 78 l 78 197 l 189 308 b 140 486 158 360 140 421 b 189 663 140 551 158 612 l 78 775 m 487 308 b 665 486 586 308 665 387 b 487 663 665 585 586 663 b 310 486 387 663 310 585 b 487 308 310 387 387 308 "},"¥":{"ha":972,"x_min":0,"x_max":0,"o":"m 849 178 l 603 178 l 603 0 l 378 0 l 378 178 l 132 178 l 132 316 l 378 316 l 378 394 l 132 394 l 132 531 l 320 531 l 24 972 l 284 972 l 491 646 l 695 972 l 948 972 l 658 531 l 849 531 l 849 394 l 603 394 l 603 316 l 849 316 "},"¦":{"ha":465,"x_min":0,"x_max":0,"o":"m 341 490 l 124 490 l 124 972 l 341 972 m 341 -184 l 124 -184 l 124 298 l 341 298 "},"§":{"ha":902,"x_min":0,"x_max":0,"o":"m 727 725 b 476 794 667 758 581 794 b 342 726 400 794 342 772 b 526 644 342 674 428 660 l 563 639 b 839 409 737 610 839 531 b 747 221 839 324 803 263 b 820 62 794 181 820 128 b 449 -235 820 -150 637 -235 b 63 -131 302 -235 160 -199 l 169 47 b 453 -40 236 4 326 -40 b 587 31 529 -40 587 -18 b 415 108 587 79 528 88 l 372 116 b 92 359 201 147 92 215 b 187 535 92 431 126 492 b 110 706 136 575 110 631 b 468 990 110 876 257 990 b 821 903 581 990 683 974 m 383 459 b 324 388 347 446 324 422 b 491 310 324 337 392 326 b 557 299 507 307 536 302 b 606 369 588 313 606 335 b 433 451 606 422 545 434 "},"¨":{"ha":778,"x_min":0,"x_max":0,"o":"m 226 1006 b 356 876 299 1006 356 949 b 226 747 356 803 299 747 b 97 876 153 747 97 803 b 226 1006 97 949 153 1006 m 548 1006 b 678 876 621 1006 678 949 b 548 747 678 803 621 747 b 418 876 474 747 418 803 b 548 1006 418 949 474 1006 "},"©":{"ha":1263,"x_min":0,"x_max":0,"o":"m 631 1052 b 1205 494 949 1052 1205 801 b 631 -66 1205 185 949 -66 b 58 494 314 -66 58 185 b 631 1052 58 801 314 1052 m 631 874 b 245 494 418 874 245 704 b 631 113 245 283 418 113 b 1017 494 844 113 1017 283 b 631 874 1017 704 844 874 m 744 544 b 636 613 721 591 685 613 b 531 493 575 613 531 565 b 636 375 531 406 586 375 b 749 444 683 375 721 397 l 892 351 b 639 215 841 268 754 215 b 353 493 470 215 353 328 b 639 772 353 659 470 772 b 899 618 753 772 854 716 "},"ª":{"ha":553,"x_min":0,"x_max":0,"o":"m 263 898 b 497 681 400 898 497 831 l 497 394 l 353 394 l 353 440 b 210 382 322 408 277 382 b 37 538 103 382 37 443 b 246 690 37 632 113 690 l 345 690 b 248 767 340 740 309 767 b 115 723 192 767 148 746 l 58 835 b 263 898 103 869 172 898 m 249 497 b 350 544 290 497 326 518 l 350 595 l 267 595 b 190 546 213 595 190 572 b 249 497 190 519 210 497 "},"«":{"ha":772,"x_min":0,"x_max":0,"o":"m 724 90 l 514 90 l 377 369 l 514 648 l 724 648 l 588 369 m 396 90 l 185 90 l 49 369 l 185 648 l 396 648 l 259 369 "},"¬":{"ha":833,"x_min":0,"x_max":0,"o":"m 744 458 l 744 61 l 561 61 l 561 280 l 90 280 l 90 458 "},"­":{"ha":541,"x_min":0,"x_max":0,"o":"m 479 276 l 62 276 l 62 462 l 479 462 "},"®":{"ha":694,"x_min":0,"x_max":0,"o":"m 347 1003 b 674 685 531 1003 674 860 b 347 366 674 510 529 366 b 19 685 162 366 19 510 b 347 1003 19 860 162 1003 m 347 464 b 566 685 467 464 566 565 b 347 905 566 806 467 905 b 126 685 225 905 126 806 b 347 464 126 565 225 464 m 363 829 b 484 731 442 829 484 790 b 401 642 484 686 455 653 l 488 540 l 388 540 l 313 640 l 306 640 l 306 540 l 222 540 l 222 829 m 306 756 l 306 708 l 361 708 b 398 731 383 708 398 715 b 361 756 398 747 383 756 "},"¯":{"ha":771,"x_min":0,"x_max":0,"o":"m 141 963 l 630 963 l 630 789 l 141 789 "},"°":{"ha":608,"x_min":0,"x_max":0,"o":"m 304 428 b 19 707 147 428 19 553 b 304 990 19 863 147 990 b 588 707 461 990 588 863 b 304 428 588 553 461 428 m 304 595 b 415 707 364 595 415 645 b 304 818 415 768 364 818 b 193 707 243 818 193 768 b 304 595 193 645 243 595 "},"±":{"ha":833,"x_min":0,"x_max":0,"o":"m 326 244 l 326 419 l 90 419 l 90 599 l 326 599 l 326 820 l 508 820 l 508 599 l 744 599 l 744 419 l 508 419 l 508 244 m 744 0 l 90 0 l 90 179 l 744 179 "},"²":{"ha":507,"x_min":0,"x_max":0,"o":"m 31 878 b 256 983 71 926 141 983 b 463 795 381 983 463 910 b 366 613 463 728 440 679 l 281 537 l 476 537 l 476 394 l 64 394 l 64 515 l 264 699 b 304 776 290 724 304 749 b 237 835 304 812 274 835 b 118 772 187 835 151 805 "},"³":{"ha":508,"x_min":0,"x_max":0,"o":"m 233 983 b 456 815 363 983 456 917 b 373 685 456 756 426 711 b 468 556 433 661 468 615 b 235 384 468 439 355 384 b 24 469 145 384 72 415 l 108 568 b 227 518 141 536 181 518 b 308 570 272 518 308 535 b 216 623 308 605 266 623 l 151 623 l 151 749 l 218 749 b 298 801 263 749 298 768 b 226 848 298 833 270 848 b 106 796 172 848 133 824 l 25 897 b 233 983 73 947 136 983 "},"´":{"ha":694,"x_min":0,"x_max":0,"o":"m 149 767 l 297 998 l 546 998 l 353 767 "},"µ":{"ha":800,"x_min":0,"x_max":0,"o":"m 72 -278 l 72 681 l 289 681 l 289 311 b 397 185 289 231 329 185 b 507 315 457 185 507 226 l 507 681 l 724 681 l 724 0 l 516 0 l 516 85 b 313 -19 473 14 404 -19 b 281 -17 302 -19 291 -18 l 281 -278 "},"¶":{"ha":909,"x_min":0,"x_max":0,"o":"m 380 388 b 59 683 170 392 59 508 b 380 972 59 853 171 968 l 380 972 l 546 972 l 546 0 l 380 0 m 619 972 l 785 972 l 785 0 l 619 0 "},"·":{"ha":476,"x_min":0,"x_max":0,"o":"m 239 517 b 387 369 319 517 387 449 b 239 219 387 289 319 219 b 90 369 159 219 90 289 b 239 517 90 449 159 517 "},"¸":{"ha":502,"x_min":0,"x_max":0,"o":"m 315 -223 l 116 -223 l 193 5 l 387 5 "},"¹":{"ha":376,"x_min":0,"x_max":0,"o":"m 302 394 l 148 394 l 148 772 l 24 729 l 24 878 l 302 981 "},"º":{"ha":605,"x_min":0,"x_max":0,"o":"m 302 898 b 568 640 455 898 568 788 b 302 382 568 492 455 382 b 37 640 149 382 37 492 b 302 898 37 788 149 898 m 302 758 b 190 640 238 758 190 709 b 302 522 190 570 238 522 b 415 640 367 522 415 570 b 302 758 415 709 367 758 "},"»":{"ha":772,"x_min":0,"x_max":0,"o":"m 48 648 l 258 648 l 395 369 l 258 90 l 48 90 l 185 369 m 376 648 l 587 648 l 724 369 l 587 90 l 376 90 l 513 369 "},"¼":{"ha":1192,"x_min":0,"x_max":0,"o":"m 350 0 l 160 0 l 774 972 l 963 972 m 1106 229 l 1174 229 l 1174 92 l 1106 92 l 1106 0 l 952 0 l 952 92 l 695 92 l 695 198 l 876 577 l 1043 577 l 876 229 l 952 229 l 952 289 l 998 385 l 1106 385 m 302 394 l 148 394 l 148 772 l 24 729 l 24 878 l 302 981 "},"½":{"ha":1239,"x_min":0,"x_max":0,"o":"m 350 0 l 160 0 l 774 972 l 963 972 m 763 484 b 988 588 803 531 873 588 b 1195 401 1113 588 1195 515 b 1098 219 1195 334 1172 285 l 1013 142 l 1208 142 l 1208 0 l 796 0 l 796 121 l 996 305 b 1036 381 1022 329 1036 355 b 969 441 1036 417 1006 441 b 850 378 919 441 883 410 m 302 394 l 148 394 l 148 772 l 24 729 l 24 878 l 302 981 "},"¾":{"ha":1308,"x_min":0,"x_max":0,"o":"m 466 0 l 276 0 l 890 972 l 1079 972 m 1222 229 l 1290 229 l 1290 92 l 1222 92 l 1222 0 l 1068 0 l 1068 92 l 811 92 l 811 198 l 992 577 l 1159 577 l 992 229 l 1068 229 l 1068 289 l 1114 385 l 1222 385 m 233 983 b 456 815 363 983 456 917 b 373 685 456 756 426 711 b 468 556 433 661 468 615 b 235 384 468 439 355 384 b 24 469 145 384 72 415 l 108 568 b 227 518 141 536 181 518 b 308 570 272 518 308 535 b 216 623 308 605 266 623 l 151 623 l 151 749 l 218 749 b 298 801 263 749 298 768 b 226 848 298 833 270 848 b 106 796 172 848 133 824 l 25 897 b 233 983 73 947 136 983 "},"¿":{"ha":619,"x_min":0,"x_max":0,"o":"m 513 339 l 513 90 l 442 90 b 263 -1 323 90 263 60 b 441 -90 263 -60 322 -89 b 542 -84 476 -90 513 -87 l 554 -301 b 404 -310 513 -306 459 -310 b 23 -23 164 -310 23 -199 b 304 267 23 131 124 231 l 310 339 m 412 413 b 269 555 335 413 269 478 b 412 700 269 633 335 700 b 556 556 489 700 556 633 b 412 413 556 478 489 413 "},"À":{"ha":1040,"x_min":0,"x_max":0,"o":"m 1031 0 l 784 0 l 710 204 l 324 204 l 251 0 l 8 0 l 381 972 l 658 972 m 399 414 l 635 414 l 517 742 m 260 1278 l 509 1278 l 656 1048 l 453 1048 "},"Á":{"ha":1040,"x_min":0,"x_max":0,"o":"m 1031 0 l 784 0 l 710 204 l 324 204 l 251 0 l 8 0 l 381 972 l 658 972 m 399 414 l 635 414 l 517 742 m 375 1048 l 522 1278 l 772 1278 l 578 1048 "},"Â":{"ha":1040,"x_min":0,"x_max":0,"o":"m 1031 0 l 784 0 l 710 204 l 324 204 l 251 0 l 8 0 l 381 972 l 658 972 m 399 414 l 635 414 l 517 742 m 599 1041 l 521 1141 l 442 1041 l 244 1041 l 401 1272 l 640 1272 l 797 1041 "},"Ã":{"ha":1040,"x_min":0,"x_max":0,"o":"m 1031 0 l 784 0 l 710 204 l 324 204 l 251 0 l 8 0 l 381 972 l 658 972 m 399 414 l 635 414 l 517 742 m 233 1166 b 432 1272 288 1244 355 1272 b 608 1222 531 1272 569 1222 b 688 1269 633 1222 658 1238 l 807 1154 b 608 1049 753 1076 685 1049 b 431 1099 510 1049 471 1099 b 351 1051 407 1099 381 1082 "},"Ä":{"ha":1040,"x_min":0,"x_max":0,"o":"m 1031 0 l 784 0 l 710 204 l 324 204 l 251 0 l 8 0 l 381 972 l 658 972 m 399 414 l 635 414 l 517 742 m 359 1287 b 490 1157 433 1287 490 1230 b 359 1027 490 1083 433 1027 b 230 1157 286 1027 230 1083 b 359 1287 230 1230 286 1287 m 681 1287 b 811 1157 754 1287 811 1230 b 681 1027 811 1083 754 1027 b 551 1157 608 1027 551 1083 b 681 1287 551 1230 608 1287 "},"Å":{"ha":1040,"x_min":0,"x_max":0,"o":"m 1031 0 l 784 0 l 710 204 l 324 204 l 251 0 l 8 0 l 381 972 l 658 972 m 399 414 l 635 414 l 517 742 m 519 1022 b 328 1211 415 1022 328 1106 b 519 1399 328 1315 415 1399 b 712 1211 626 1399 712 1315 b 519 1022 712 1106 626 1022 m 519 1138 b 591 1211 558 1138 591 1169 b 519 1284 591 1251 558 1284 b 449 1211 482 1284 449 1251 b 519 1138 449 1169 482 1138 "},"Æ":{"ha":1589,"x_min":0,"x_max":0,"o":"m 1519 0 l 774 0 l 774 184 l 405 184 l 281 0 l 7 0 l 679 972 l 1516 972 l 1516 763 l 1006 763 l 1006 595 l 1486 595 l 1486 387 l 1006 387 l 1006 209 l 1519 209 m 774 394 l 774 733 l 546 394 "},"Ç":{"ha":1033,"x_min":0,"x_max":0,"o":"m 560 990 b 992 756 745 990 909 903 l 788 640 b 557 768 738 722 658 768 b 290 486 403 768 290 653 b 558 204 290 306 414 204 b 792 332 656 204 737 249 l 983 197 b 656 -10 910 88 797 13 l 590 -223 l 376 -223 l 449 -8 b 48 486 209 37 48 229 b 560 990 48 781 260 990 "},"È":{"ha":903,"x_min":0,"x_max":0,"o":"m 833 0 l 88 0 l 88 972 l 830 972 l 830 763 l 320 763 l 320 595 l 800 595 l 800 387 l 320 387 l 320 209 l 833 209 m 198 1278 l 447 1278 l 594 1048 l 391 1048 "},"É":{"ha":903,"x_min":0,"x_max":0,"o":"m 833 0 l 88 0 l 88 972 l 830 972 l 830 763 l 320 763 l 320 595 l 800 595 l 800 387 l 320 387 l 320 209 l 833 209 m 313 1048 l 460 1278 l 710 1278 l 517 1048 "},"Ê":{"ha":903,"x_min":0,"x_max":0,"o":"m 833 0 l 88 0 l 88 972 l 830 972 l 830 763 l 320 763 l 320 595 l 800 595 l 800 387 l 320 387 l 320 209 l 833 209 m 538 1041 l 459 1141 l 380 1041 l 183 1041 l 339 1272 l 578 1272 l 735 1041 "},"Ë":{"ha":903,"x_min":0,"x_max":0,"o":"m 833 0 l 88 0 l 88 972 l 830 972 l 830 763 l 320 763 l 320 595 l 800 595 l 800 387 l 320 387 l 320 209 l 833 209 m 297 1287 b 428 1157 371 1287 428 1230 b 297 1027 428 1083 371 1027 b 168 1157 224 1027 168 1083 b 297 1287 168 1230 224 1287 m 619 1287 b 749 1157 692 1287 749 1230 b 619 1027 749 1083 692 1027 b 490 1157 546 1027 490 1083 b 619 1287 490 1230 546 1287 "},"Ì":{"ha":408,"x_min":0,"x_max":0,"o":"m 320 0 l 88 0 l 88 972 l 320 972 m -56 1278 l 193 1278 l 340 1048 l 137 1048 "},"Í":{"ha":408,"x_min":0,"x_max":0,"o":"m 320 0 l 88 0 l 88 972 l 320 972 m 59 1048 l 206 1278 l 456 1278 l 263 1048 "},"Î":{"ha":408,"x_min":0,"x_max":0,"o":"m 320 0 l 88 0 l 88 972 l 320 972 m 283 1041 l 205 1141 l 126 1041 l -72 1041 l 85 1272 l 324 1272 l 481 1041 "},"Ï":{"ha":408,"x_min":0,"x_max":0,"o":"m 320 0 l 88 0 l 88 972 l 320 972 m 43 1287 b 174 1157 117 1287 174 1230 b 43 1027 174 1083 117 1027 b -86 1157 -30 1027 -86 1083 b 43 1287 -86 1230 -30 1287 m 365 1287 b 495 1157 438 1287 495 1230 b 365 1027 495 1083 438 1027 b 235 1157 292 1027 235 1083 b 365 1287 235 1230 292 1287 "},"Ð":{"ha":1126,"x_min":0,"x_max":0,"o":"m 573 972 b 1078 486 877 972 1078 779 b 573 0 1078 193 877 0 l 157 0 l 157 391 l 53 391 l 53 591 l 157 591 l 157 972 m 611 391 l 389 391 l 389 215 l 568 215 b 835 486 749 215 835 329 b 568 758 835 645 749 758 l 389 758 l 389 591 l 611 591 "},"Ñ":{"ha":1074,"x_min":0,"x_max":0,"o":"m 986 0 l 763 0 l 320 593 l 320 0 l 88 0 l 88 972 l 310 972 l 753 379 l 753 972 l 986 972 m 258 1166 b 457 1272 313 1244 380 1272 b 633 1222 556 1272 594 1222 b 713 1269 658 1222 683 1238 l 832 1154 b 633 1049 778 1076 710 1049 b 456 1099 535 1049 496 1099 b 376 1051 432 1099 406 1082 "},"Ò":{"ha":1121,"x_min":0,"x_max":0,"o":"m 560 990 b 1073 486 860 990 1073 776 b 560 -18 1073 196 860 -18 b 48 486 260 -18 48 196 b 560 990 48 776 260 990 m 560 768 b 290 486 402 768 290 653 b 560 204 290 319 402 204 b 831 486 719 204 831 319 b 560 768 831 653 719 768 m 300 1278 l 549 1278 l 697 1048 l 493 1048 "},"Ó":{"ha":1121,"x_min":0,"x_max":0,"o":"m 560 990 b 1073 486 860 990 1073 776 b 560 -18 1073 196 860 -18 b 48 486 260 -18 48 196 b 560 990 48 776 260 990 m 560 768 b 290 486 402 768 290 653 b 560 204 290 319 402 204 b 831 486 719 204 831 319 b 560 768 831 653 719 768 m 415 1048 l 563 1278 l 812 1278 l 619 1048 "},"Ô":{"ha":1121,"x_min":0,"x_max":0,"o":"m 560 990 b 1073 486 860 990 1073 776 b 560 -18 1073 196 860 -18 b 48 486 260 -18 48 196 b 560 990 48 776 260 990 m 560 768 b 290 486 402 768 290 653 b 560 204 290 319 402 204 b 831 486 719 204 831 319 b 560 768 831 653 719 768 m 640 1041 l 561 1141 l 482 1041 l 285 1041 l 441 1272 l 680 1272 l 837 1041 "},"Õ":{"ha":1121,"x_min":0,"x_max":0,"o":"m 560 990 b 1073 486 860 990 1073 776 b 560 -18 1073 196 860 -18 b 48 486 260 -18 48 196 b 560 990 48 776 260 990 m 560 768 b 290 486 402 768 290 653 b 560 204 290 319 402 204 b 831 486 719 204 831 319 b 560 768 831 653 719 768 m 273 1166 b 472 1272 328 1244 395 1272 b 649 1222 571 1272 610 1222 b 728 1269 673 1222 699 1238 l 847 1154 b 648 1049 793 1076 725 1049 b 472 1099 550 1049 511 1099 b 392 1051 447 1099 422 1082 "},"Ö":{"ha":1121,"x_min":0,"x_max":0,"o":"m 560 990 b 1073 486 860 990 1073 776 b 560 -18 1073 196 860 -18 b 48 486 260 -18 48 196 b 560 990 48 776 260 990 m 560 768 b 290 486 402 768 290 653 b 560 204 290 319 402 204 b 831 486 719 204 831 319 b 560 768 831 653 719 768 m 399 1287 b 530 1157 473 1287 530 1230 b 399 1027 530 1083 473 1027 b 270 1157 326 1027 270 1083 b 399 1287 270 1230 326 1287 m 722 1287 b 851 1157 794 1287 851 1230 b 722 1027 851 1083 794 1027 b 592 1157 648 1027 592 1083 b 722 1287 592 1230 648 1287 "},"×":{"ha":833,"x_min":0,"x_max":0,"o":"m 101 181 l 288 367 l 99 557 l 229 687 l 418 498 l 606 685 l 733 558 l 545 371 l 734 182 l 604 51 l 415 240 l 228 53 "},"Ø":{"ha":1131,"x_min":0,"x_max":0,"o":"m 560 990 b 855 907 673 990 774 960 l 938 990 l 1069 859 l 987 777 b 1073 486 1042 696 1073 597 b 560 -18 1073 196 860 -18 b 272 62 450 -18 352 10 l 192 -18 l 61 113 l 138 189 b 48 486 81 271 48 372 b 560 990 48 776 260 990 m 560 768 b 290 486 402 768 290 653 b 313 364 290 441 298 400 l 688 739 b 560 768 650 758 607 768 m 831 486 b 810 601 831 528 824 566 l 440 230 b 560 204 475 213 516 204 b 831 486 719 204 831 319 "},"Ù":{"ha":1009,"x_min":0,"x_max":0,"o":"m 930 392 b 504 -18 930 126 769 -18 b 79 392 240 -18 79 126 l 79 972 l 312 972 l 312 401 b 504 205 312 268 388 205 b 697 401 621 205 697 268 l 697 972 l 930 972 m 244 1278 l 493 1278 l 640 1048 l 437 1048 "},"Ú":{"ha":1009,"x_min":0,"x_max":0,"o":"m 930 392 b 504 -18 930 126 769 -18 b 79 392 240 -18 79 126 l 79 972 l 312 972 l 312 401 b 504 205 312 268 388 205 b 697 401 621 205 697 268 l 697 972 l 930 972 m 359 1048 l 506 1278 l 756 1278 l 563 1048 "},"Û":{"ha":1009,"x_min":0,"x_max":0,"o":"m 930 392 b 504 -18 930 126 769 -18 b 79 392 240 -18 79 126 l 79 972 l 312 972 l 312 401 b 504 205 312 268 388 205 b 697 401 621 205 697 268 l 697 972 l 930 972 m 583 1041 l 505 1141 l 426 1041 l 228 1041 l 385 1272 l 624 1272 l 781 1041 "},"Ü":{"ha":1009,"x_min":0,"x_max":0,"o":"m 930 392 b 504 -18 930 126 769 -18 b 79 392 240 -18 79 126 l 79 972 l 312 972 l 312 401 b 504 205 312 268 388 205 b 697 401 621 205 697 268 l 697 972 l 930 972 m 343 1287 b 474 1157 417 1287 474 1230 b 343 1027 474 1083 417 1027 b 214 1157 270 1027 214 1083 b 343 1287 214 1230 270 1287 m 665 1287 b 795 1157 738 1287 795 1230 b 665 1027 795 1083 738 1027 b 535 1157 592 1027 535 1083 b 665 1287 535 1230 592 1287 "},"Ý":{"ha":971,"x_min":0,"x_max":0,"o":"m 605 374 l 605 0 l 372 0 l 372 373 l 3 972 l 272 972 l 490 584 l 707 972 l 968 972 m 344 1048 l 492 1278 l 741 1278 l 548 1048 "},"Þ":{"ha":915,"x_min":0,"x_max":0,"o":"m 320 819 l 505 819 b 872 496 745 819 872 690 b 507 176 872 304 745 176 l 320 176 l 320 0 l 88 0 l 88 972 l 320 972 m 320 609 l 320 383 l 501 383 b 636 496 585 383 636 422 b 501 609 636 569 585 609 "},"ß":{"ha":853,"x_min":0,"x_max":0,"o":"m 72 685 b 430 1018 72 849 159 1018 b 785 726 660 1018 785 881 b 651 498 785 610 728 532 b 813 274 741 469 813 378 b 486 -18 813 99 688 -18 b 352 -1 433 -18 389 -13 l 372 178 b 453 165 397 169 424 165 b 590 283 537 165 590 209 b 431 403 590 367 530 403 l 400 403 l 400 585 l 413 585 b 563 703 501 585 563 617 b 425 820 563 774 507 820 b 290 678 335 820 290 762 l 290 0 l 72 0 "},"à":{"ha":839,"x_min":0,"x_max":0,"o":"m 763 0 l 553 0 l 553 74 b 357 -18 512 20 449 -18 b 40 342 175 -18 40 140 b 358 700 40 542 175 700 b 553 608 449 700 512 661 l 553 681 l 763 681 m 409 497 b 264 341 322 497 264 430 b 409 185 264 252 322 185 b 555 341 494 185 555 251 b 409 497 555 431 494 497 m 170 998 l 419 998 l 567 767 l 363 767 "},"á":{"ha":839,"x_min":0,"x_max":0,"o":"m 763 0 l 553 0 l 553 74 b 357 -18 512 20 449 -18 b 40 342 175 -18 40 140 b 358 700 40 542 175 700 b 553 608 449 700 512 661 l 553 681 l 763 681 m 409 497 b 264 341 322 497 264 430 b 409 185 264 252 322 185 b 555 341 494 185 555 251 b 409 497 555 431 494 497 m 289 767 l 436 998 l 685 998 l 492 767 "},"â":{"ha":839,"x_min":0,"x_max":0,"o":"m 763 0 l 553 0 l 553 74 b 357 -18 512 20 449 -18 b 40 342 175 -18 40 140 b 358 700 40 542 175 700 b 553 608 449 700 512 661 l 553 681 l 763 681 m 409 497 b 264 341 322 497 264 430 b 409 185 264 252 322 185 b 555 341 494 185 555 251 b 409 497 555 431 494 497 m 504 760 l 426 860 l 347 760 l 149 760 l 306 991 l 544 991 l 701 760 "},"ã":{"ha":839,"x_min":0,"x_max":0,"o":"m 763 0 l 553 0 l 553 74 b 357 -18 512 20 449 -18 b 40 342 175 -18 40 140 b 358 700 40 542 175 700 b 553 608 449 700 512 661 l 553 681 l 763 681 m 409 497 b 264 341 322 497 264 430 b 409 185 264 252 322 185 b 555 341 494 185 555 251 b 409 497 555 431 494 497 m 135 885 b 334 991 190 963 257 991 b 510 941 433 991 472 941 b 590 989 535 941 560 958 l 709 874 b 510 768 655 796 587 768 b 333 818 412 768 373 818 b 253 771 309 818 283 801 "},"ä":{"ha":839,"x_min":0,"x_max":0,"o":"m 763 0 l 553 0 l 553 74 b 357 -18 512 20 449 -18 b 40 342 175 -18 40 140 b 358 700 40 542 175 700 b 553 608 449 700 512 661 l 553 681 l 763 681 m 409 497 b 264 341 322 497 264 430 b 409 185 264 252 322 185 b 555 341 494 185 555 251 b 409 497 555 431 494 497 m 263 1006 b 393 876 336 1006 393 949 b 263 747 393 803 336 747 b 133 876 190 747 133 803 b 263 1006 133 949 190 1006 m 585 1006 b 715 876 658 1006 715 949 b 585 747 715 803 658 747 b 455 876 511 747 455 803 b 585 1006 455 949 511 1006 "},"å":{"ha":839,"x_min":0,"x_max":0,"o":"m 763 0 l 553 0 l 553 74 b 357 -18 512 20 449 -18 b 40 342 175 -18 40 140 b 358 700 40 542 175 700 b 553 608 449 700 512 661 l 553 681 l 763 681 m 409 497 b 264 341 322 497 264 430 b 409 185 264 252 322 185 b 555 341 494 185 555 251 b 409 497 555 431 494 497 m 425 742 b 234 931 320 742 234 826 b 425 1119 234 1034 320 1119 b 617 931 531 1119 617 1034 b 425 742 617 826 531 742 m 425 858 b 497 931 464 858 497 889 b 425 1003 497 971 464 1003 b 354 931 388 1003 354 971 b 425 858 354 889 388 858 "},"æ":{"ha":1203,"x_min":0,"x_max":0,"o":"m 832 700 b 1163 341 1031 700 1162 555 b 1158 274 1163 319 1160 288 l 696 274 b 842 165 714 199 767 165 b 990 224 893 165 948 185 l 1131 94 b 825 -18 1059 23 953 -18 b 565 78 717 -18 627 15 b 311 -18 515 33 442 -18 b 40 198 143 -18 40 65 b 339 408 40 330 149 408 l 471 408 b 341 510 463 474 422 510 b 153 454 276 510 200 483 l 81 624 b 372 700 142 664 255 700 b 597 611 485 700 557 661 b 832 700 653 672 733 700 m 349 148 b 490 209 409 148 457 175 b 476 274 483 229 478 251 l 371 274 b 262 211 297 274 262 247 b 349 148 262 175 291 148 m 822 515 b 695 406 758 515 711 485 l 947 406 b 822 515 930 478 886 515 "},"ç":{"ha":721,"x_min":0,"x_max":0,"o":"m 408 700 b 699 551 534 700 633 644 l 528 432 b 403 497 494 476 456 497 b 263 341 327 497 263 439 b 401 185 263 242 326 185 b 530 251 453 185 496 208 l 699 130 b 493 -9 649 59 579 10 l 426 -223 l 226 -223 l 300 -5 b 40 341 142 36 40 169 b 408 700 40 549 190 700 "},"è":{"ha":771,"x_min":0,"x_max":0,"o":"m 390 700 b 731 341 592 700 730 554 b 726 274 731 319 729 288 l 265 274 b 410 165 283 199 335 165 b 559 224 461 165 516 185 l 699 94 b 399 -18 628 23 525 -18 b 40 337 185 -18 40 124 b 390 700 40 551 183 700 m 390 515 b 265 411 323 515 282 478 l 513 411 b 390 515 496 479 453 515 m 133 998 l 383 998 l 530 767 l 326 767 "},"é":{"ha":771,"x_min":0,"x_max":0,"o":"m 390 700 b 731 341 592 700 730 554 b 726 274 731 319 729 288 l 265 274 b 410 165 283 199 335 165 b 559 224 461 165 516 185 l 699 94 b 399 -18 628 23 525 -18 b 40 337 185 -18 40 124 b 390 700 40 551 183 700 m 390 515 b 265 411 323 515 282 478 l 513 411 b 390 515 496 479 453 515 m 252 767 l 399 998 l 649 998 l 456 767 "},"ê":{"ha":771,"x_min":0,"x_max":0,"o":"m 390 700 b 731 341 592 700 730 554 b 726 274 731 319 729 288 l 265 274 b 410 165 283 199 335 165 b 559 224 461 165 516 185 l 699 94 b 399 -18 628 23 525 -18 b 40 337 185 -18 40 124 b 390 700 40 551 183 700 m 390 515 b 265 411 323 515 282 478 l 513 411 b 390 515 496 479 453 515 m 467 760 l 389 860 l 310 760 l 113 760 l 269 991 l 508 991 l 665 760 "},"ë":{"ha":771,"x_min":0,"x_max":0,"o":"m 390 700 b 731 341 592 700 730 554 b 726 274 731 319 729 288 l 265 274 b 410 165 283 199 335 165 b 559 224 461 165 516 185 l 699 94 b 399 -18 628 23 525 -18 b 40 337 185 -18 40 124 b 390 700 40 551 183 700 m 390 515 b 265 411 323 515 282 478 l 513 411 b 390 515 496 479 453 515 m 226 1006 b 356 876 299 1006 356 949 b 226 747 356 803 299 747 b 97 876 153 747 97 803 b 226 1006 97 949 153 1006 m 548 1006 b 678 876 621 1006 678 949 b 548 747 678 803 621 747 b 418 876 474 747 418 803 b 548 1006 418 949 474 1006 "},"ì":{"ha":369,"x_min":0,"x_max":0,"o":"m 294 0 l 76 0 l 76 681 l 294 681 m -72 998 l 178 998 l 325 767 l 122 767 "},"í":{"ha":369,"x_min":0,"x_max":0,"o":"m 294 0 l 76 0 l 76 681 l 294 681 m 47 767 l 194 998 l 444 998 l 251 767 "},"î":{"ha":369,"x_min":0,"x_max":0,"o":"m 294 0 l 76 0 l 76 681 l 294 681 m 263 760 l 184 860 l 105 760 l -92 760 l 64 991 l 303 991 l 460 760 "},"ï":{"ha":369,"x_min":0,"x_max":0,"o":"m 294 0 l 76 0 l 76 681 l 294 681 m 21 1006 b 151 876 94 1006 151 949 b 21 747 151 803 94 747 b -108 876 -52 747 -108 803 b 21 1006 -108 949 -52 1006 m 343 1006 b 473 876 416 1006 473 949 b 343 747 473 803 416 747 b 213 876 269 747 213 803 b 343 1006 213 949 269 1006 "},"ð":{"ha":815,"x_min":0,"x_max":0,"o":"m 653 900 l 559 842 b 774 351 694 714 774 532 b 405 -18 774 139 626 -18 b 40 315 197 -18 40 125 b 357 644 40 506 180 644 b 512 597 419 644 470 628 b 389 741 482 653 440 700 l 242 650 l 175 756 l 275 817 b 173 872 243 836 208 853 l 301 1013 b 457 926 357 988 410 959 l 585 1006 m 410 461 b 263 315 325 461 263 401 b 410 170 263 231 325 170 b 558 315 495 170 558 231 b 410 461 558 401 495 461 "},"ñ":{"ha":801,"x_min":0,"x_max":0,"o":"m 488 700 b 729 447 624 700 729 605 l 729 0 l 512 0 l 512 370 b 404 496 512 451 472 496 b 294 367 344 496 294 455 l 294 0 l 76 0 l 76 681 l 285 681 l 285 596 b 488 700 328 667 397 700 m 118 885 b 317 991 173 963 240 991 b 494 941 416 991 455 941 b 574 989 518 941 544 958 l 692 874 b 493 768 638 796 570 768 b 317 818 395 768 356 818 b 237 771 292 818 267 801 "},"ò":{"ha":820,"x_min":0,"x_max":0,"o":"m 410 700 b 780 341 623 700 780 547 b 410 -18 780 135 623 -18 b 40 341 197 -18 40 135 b 410 700 40 547 197 700 m 410 497 b 263 341 325 497 263 433 b 410 185 263 249 325 185 b 558 341 495 185 558 249 b 410 497 558 433 495 497 m 154 998 l 403 998 l 551 767 l 347 767 "},"ó":{"ha":820,"x_min":0,"x_max":0,"o":"m 410 700 b 780 341 623 700 780 547 b 410 -18 780 135 623 -18 b 40 341 197 -18 40 135 b 410 700 40 547 197 700 m 410 497 b 263 341 325 497 263 433 b 410 185 263 249 325 185 b 558 341 495 185 558 249 b 410 497 558 433 495 497 m 273 767 l 420 998 l 669 998 l 476 767 "},"ô":{"ha":820,"x_min":0,"x_max":0,"o":"m 410 700 b 780 341 623 700 780 547 b 410 -18 780 135 623 -18 b 40 341 197 -18 40 135 b 410 700 40 547 197 700 m 410 497 b 263 341 325 497 263 433 b 410 185 263 249 325 185 b 558 341 495 185 558 249 b 410 497 558 433 495 497 m 488 760 l 410 860 l 331 760 l 133 760 l 290 991 l 528 991 l 685 760 "},"õ":{"ha":820,"x_min":0,"x_max":0,"o":"m 410 700 b 780 341 623 700 780 547 b 410 -18 780 135 623 -18 b 40 341 197 -18 40 135 b 410 700 40 547 197 700 m 410 497 b 263 341 325 497 263 433 b 410 185 263 249 325 185 b 558 341 495 185 558 249 b 410 497 558 433 495 497 m 119 885 b 318 991 174 963 241 991 b 494 941 417 991 456 941 b 574 989 519 941 544 958 l 693 874 b 494 768 639 796 571 768 b 317 818 396 768 357 818 b 238 771 293 818 267 801 "},"ö":{"ha":820,"x_min":0,"x_max":0,"o":"m 410 700 b 780 341 623 700 780 547 b 410 -18 780 135 623 -18 b 40 341 197 -18 40 135 b 410 700 40 547 197 700 m 410 497 b 263 341 325 497 263 433 b 410 185 263 249 325 185 b 558 341 495 185 558 249 b 410 497 558 433 495 497 m 247 1006 b 377 876 320 1006 377 949 b 247 747 377 803 320 747 b 117 876 174 747 117 803 b 247 1006 117 949 174 1006 m 569 1006 b 699 876 642 1006 699 949 b 569 747 699 803 642 747 b 439 876 495 747 439 803 b 569 1006 439 949 495 1006 "},"÷":{"ha":833,"x_min":0,"x_max":0,"o":"m 744 294 l 90 294 l 90 473 l 744 473 m 418 767 b 544 641 486 767 544 710 b 418 513 544 572 486 513 b 290 641 349 513 290 572 b 418 767 290 710 349 767 m 418 254 b 544 128 486 254 544 197 b 418 0 544 59 486 0 b 290 128 349 0 290 59 b 418 254 290 197 349 254 "},"ø":{"ha":820,"x_min":0,"x_max":0,"o":"m 410 700 b 602 651 482 700 547 683 l 671 721 l 792 602 l 725 535 b 780 341 760 480 780 414 b 410 -18 780 135 623 -18 b 219 29 339 -18 274 -1 l 151 -39 l 30 79 l 96 145 b 40 341 60 201 40 267 b 410 700 40 547 197 700 m 410 506 b 254 341 321 506 254 438 b 260 293 254 324 256 308 l 464 497 b 410 506 447 503 429 506 m 567 341 b 561 388 567 357 565 373 l 358 184 b 410 176 374 178 392 176 b 567 341 499 176 567 244 "},"ù":{"ha":801,"x_min":0,"x_max":0,"o":"m 729 292 b 401 -18 729 78 582 -18 b 72 292 219 -18 72 78 l 72 681 l 289 681 l 289 311 b 401 185 289 224 335 185 b 513 311 465 185 513 224 l 513 681 l 729 681 m 145 998 l 394 998 l 542 767 l 338 767 "},"ú":{"ha":801,"x_min":0,"x_max":0,"o":"m 729 292 b 401 -18 729 78 582 -18 b 72 292 219 -18 72 78 l 72 681 l 289 681 l 289 311 b 401 185 289 224 335 185 b 513 311 465 185 513 224 l 513 681 l 729 681 m 264 767 l 411 998 l 660 998 l 467 767 "},"û":{"ha":801,"x_min":0,"x_max":0,"o":"m 729 292 b 401 -18 729 78 582 -18 b 72 292 219 -18 72 78 l 72 681 l 289 681 l 289 311 b 401 185 289 224 335 185 b 513 311 465 185 513 224 l 513 681 l 729 681 m 479 760 l 401 860 l 322 760 l 124 760 l 281 991 l 519 991 l 676 760 "},"ü":{"ha":801,"x_min":0,"x_max":0,"o":"m 729 292 b 401 -18 729 78 582 -18 b 72 292 219 -18 72 78 l 72 681 l 289 681 l 289 311 b 401 185 289 224 335 185 b 513 311 465 185 513 224 l 513 681 l 729 681 m 238 1006 b 368 876 311 1006 368 949 b 238 747 368 803 311 747 b 108 876 165 747 108 803 b 238 1006 108 949 165 1006 m 560 1006 b 690 876 633 1006 690 949 b 560 747 690 803 633 747 b 430 876 486 747 430 803 b 560 1006 430 949 486 1006 "},"ý":{"ha":805,"x_min":0,"x_max":0,"o":"m 297 -279 l 60 -279 l 293 150 l 6 681 l 256 681 l 410 375 l 563 681 l 800 681 m 272 767 l 419 998 l 669 998 l 476 767 "},"þ":{"ha":839,"x_min":0,"x_max":0,"o":"m 481 700 b 799 342 663 700 799 542 b 481 -18 799 140 663 -18 b 294 63 394 -18 335 15 l 294 -278 l 76 -278 l 76 1000 l 294 1000 l 294 617 b 481 700 335 666 394 700 m 429 497 b 284 341 344 497 284 431 b 429 185 284 251 344 185 b 575 341 517 185 575 252 b 429 497 575 430 517 497 "},"ÿ":{"ha":805,"x_min":0,"x_max":0,"o":"m 297 -279 l 60 -279 l 293 150 l 6 681 l 256 681 l 410 375 l 563 681 l 800 681 m 246 1006 b 376 876 319 1006 376 949 b 246 747 376 803 319 747 b 117 876 173 747 117 803 b 246 1006 117 949 173 1006 m 568 1006 b 698 876 641 1006 698 949 b 568 747 698 803 641 747 b 438 876 494 747 438 803 b 568 1006 438 949 494 1006 "},"ı":{"ha":369,"x_min":0,"x_max":0,"o":"m 294 0 l 76 0 l 76 681 l 294 681 "},"Ĳ":{"ha":1178,"x_min":0,"x_max":0,"o":"m 320 0 l 88 0 l 88 972 l 320 972 m 1094 365 b 735 -18 1094 110 949 -18 b 426 103 584 -18 481 42 l 547 278 b 718 205 584 240 639 205 b 863 385 808 205 863 257 l 863 972 l 1094 972 "},"ĳ":{"ha":740,"x_min":0,"x_max":0,"o":"m 664 -45 b 441 -294 664 -203 576 -294 b 337 -278 409 -294 362 -287 l 358 -85 b 401 -92 371 -90 385 -92 b 447 -31 428 -92 447 -76 l 447 681 l 664 681 m 554 1022 b 684 891 627 1022 684 965 b 554 762 684 818 627 762 b 424 891 481 762 424 818 b 554 1022 424 965 481 1022 m 294 0 l 76 0 l 76 681 l 294 681 m 184 1022 b 314 891 257 1022 314 965 b 184 762 314 818 257 762 b 54 891 110 762 54 818 b 184 1022 54 965 110 1022 "},"Ł":{"ha":895,"x_min":0,"x_max":0,"o":"m 878 0 l 157 0 l 157 273 l 53 215 l 53 439 l 157 497 l 157 972 l 389 972 l 389 626 l 675 786 l 675 563 l 389 403 l 389 215 l 878 215 "},"ł":{"ha":517,"x_min":0,"x_max":0,"o":"m 367 685 l 494 760 l 494 547 l 367 472 l 367 0 l 150 0 l 150 344 l 23 269 l 23 483 l 150 558 l 150 1000 l 367 1000 "},"Œ":{"ha":1516,"x_min":0,"x_max":0,"o":"m 1446 0 l 552 0 b 48 486 248 0 48 193 b 552 972 48 779 248 972 l 1443 972 l 1443 763 l 933 763 l 933 595 l 1413 595 l 1413 387 l 933 387 l 933 209 l 1446 209 m 290 486 b 557 215 290 327 377 215 l 701 215 l 701 758 l 557 758 b 290 486 377 758 290 643 "},"œ":{"ha":1289,"x_min":0,"x_max":0,"o":"m 908 700 b 1249 341 1109 700 1248 555 b 1244 274 1249 319 1247 288 l 782 274 b 928 165 800 199 853 165 b 1076 224 979 165 1034 185 l 1217 94 b 911 -18 1145 23 1039 -18 b 663 86 808 -18 722 20 b 410 -18 600 21 511 -18 b 40 341 197 -18 40 135 b 410 700 40 547 197 700 b 663 595 512 700 601 660 b 908 700 722 661 807 700 m 410 497 b 263 341 325 497 263 433 b 410 185 263 249 325 185 b 558 341 495 185 558 249 b 410 497 558 433 495 497 m 908 515 b 783 411 841 515 799 478 l 1031 411 b 908 515 1013 479 971 515 "},"Š":{"ha":941,"x_min":0,"x_max":0,"o":"m 772 697 b 493 778 702 738 607 778 b 340 691 405 778 340 749 b 540 597 340 630 433 615 l 581 590 b 888 310 769 557 888 469 b 481 -18 888 78 689 -18 b 53 106 319 -18 160 24 l 169 294 b 483 192 243 244 346 192 b 637 283 570 192 637 222 b 444 377 637 341 572 358 l 396 385 b 91 681 196 416 88 506 b 483 990 94 870 256 990 b 875 887 614 990 728 968 m 419 1272 l 498 1172 l 576 1272 l 774 1272 l 617 1041 l 378 1041 l 222 1272 "},"š":{"ha":706,"x_min":0,"x_max":0,"o":"m 589 472 b 365 524 522 500 434 524 b 285 483 308 524 285 508 b 395 436 285 453 328 447 l 445 428 b 668 222 591 406 668 336 b 353 -17 668 72 551 -17 b 38 54 236 -17 116 3 l 114 222 b 354 158 182 182 260 158 b 449 203 422 158 449 174 b 342 251 449 229 419 240 l 302 257 b 62 472 138 281 62 349 b 356 699 62 617 171 699 b 649 641 467 699 538 684 m 290 991 l 369 891 l 447 991 l 644 991 l 488 760 l 249 760 l 92 991 "},"Ÿ":{"ha":971,"x_min":0,"x_max":0,"o":"m 605 374 l 605 0 l 372 0 l 372 373 l 3 972 l 272 972 l 490 584 l 707 972 l 968 972 m 328 1287 b 459 1157 402 1287 459 1230 b 328 1027 459 1083 402 1027 b 199 1157 256 1027 199 1083 b 328 1287 199 1230 256 1287 m 651 1287 b 781 1157 724 1287 781 1230 b 651 1027 781 1083 724 1027 b 521 1157 577 1027 521 1083 b 651 1287 521 1230 577 1287 "},"Ž":{"ha":892,"x_min":0,"x_max":0,"o":"m 839 790 l 361 209 l 839 209 l 839 0 l 53 0 l 53 182 l 530 763 l 53 763 l 53 972 l 839 972 m 367 1272 l 447 1172 l 525 1272 l 722 1272 l 565 1041 l 326 1041 l 170 1272 "},"ž":{"ha":722,"x_min":0,"x_max":0,"o":"m 661 521 l 360 192 l 668 192 l 668 0 l 53 0 l 53 156 l 361 489 l 65 489 l 65 681 l 661 681 m 285 991 l 364 891 l 442 991 l 640 991 l 483 760 l 244 760 l 88 991 "},"ſ":{"ha":473,"x_min":0,"x_max":0,"o":"m 331 1018 b 561 946 438 1018 508 986 l 467 785 b 361 815 435 802 403 815 b 290 729 313 815 290 788 l 290 0 l 72 0 l 72 734 b 331 1018 72 917 173 1018 "},"ƒ":{"ha":972,"x_min":0,"x_max":0,"o":"m 759 417 l 585 417 l 569 247 b 317 -17 553 74 472 -17 b 106 44 219 -17 156 10 l 197 201 b 289 178 224 188 253 178 b 358 267 337 178 353 207 l 372 417 l 221 417 l 221 590 l 389 590 l 402 730 b 656 990 418 900 501 990 b 867 928 753 990 817 962 l 776 771 b 683 794 748 784 719 794 b 614 706 635 794 620 765 l 603 590 l 759 590 "},"ȷ":{"ha":370,"x_min":0,"x_max":0,"o":"m 294 -45 b 72 -294 294 -203 206 -294 b -33 -278 40 -294 -8 -287 l -12 -85 b 32 -92 1 -90 15 -92 b 78 -31 58 -92 78 -76 l 78 681 l 294 681 "},"ʻ":{"ha":392,"x_min":0,"x_max":0,"o":"m 53 549 l 164 1000 l 345 1000 l 290 549 "},"ʼ":{"ha":392,"x_min":0,"x_max":0,"o":"m 340 1000 l 228 549 l 47 549 l 102 1000 "},"ˆ":{"ha":792,"x_min":0,"x_max":0,"o":"m 477 761 l 398 861 l 319 761 l 122 761 l 278 992 l 517 992 l 674 761 "},"ˇ":{"ha":792,"x_min":0,"x_max":0,"o":"m 319 991 l 398 891 l 477 991 l 674 991 l 517 760 l 278 760 l 122 991 "},"˘":{"ha":792,"x_min":0,"x_max":0,"o":"m 281 1027 b 396 920 301 956 339 920 b 511 1027 453 920 491 956 l 672 982 b 396 752 636 836 538 752 b 120 982 255 752 156 836 "},"˙":{"ha":412,"x_min":0,"x_max":0,"o":"m 206 1022 b 336 891 279 1022 336 965 b 206 762 336 818 279 762 b 76 891 133 762 76 818 b 206 1022 76 965 133 1022 "},"˚":{"ha":694,"x_min":0,"x_max":0,"o":"m 347 742 b 156 931 242 742 156 826 b 347 1119 156 1034 242 1119 b 539 931 453 1119 539 1034 b 347 742 539 826 453 742 m 347 858 b 419 931 386 858 419 889 b 347 1003 419 971 386 1003 b 276 931 309 1003 276 971 b 347 858 276 889 309 858 "},"˛":{"ha":765,"x_min":0,"x_max":0,"o":"m 669 -211 b 461 -292 614 -263 548 -292 b 258 -126 346 -292 258 -230 b 433 63 258 -28 337 23 l 572 9 b 444 -91 480 -30 444 -58 b 490 -127 444 -112 460 -127 b 556 -100 515 -127 536 -117 "},"˜":{"ha":792,"x_min":0,"x_max":0,"o":"m 109 885 b 308 991 164 963 231 991 b 485 941 407 991 446 941 b 565 989 509 941 535 958 l 683 874 b 484 768 629 796 561 768 b 308 818 386 768 347 818 b 228 771 283 818 258 801 "},"˝":{"ha":792,"x_min":0,"x_max":0,"o":"m 353 767 l 501 998 l 750 998 l 557 767 m 42 767 l 189 998 l 438 998 l 245 767 "},"̀":{"ha":1,"x_min":0,"x_max":0,"o":"m -666 998 l -417 998 l -269 767 l -473 767 "},"́":{"ha":1,"x_min":0,"x_max":0,"o":"m -547 767 l -400 998 l -151 998 l -344 767 "},"̂":{"ha":1,"x_min":0,"x_max":0,"o":"m -332 760 l -410 860 l -490 760 l -687 760 l -531 991 l -292 991 l -135 760 "},"̃":{"ha":1,"x_min":0,"x_max":0,"o":"m -701 885 b -502 991 -647 963 -579 991 b -326 941 -403 991 -365 941 b -246 989 -301 941 -276 958 l -127 874 b -326 768 -181 796 -249 768 b -503 818 -424 768 -463 818 b -583 771 -527 818 -553 801 "},"̄":{"ha":1,"x_min":0,"x_max":0,"o":"m -655 963 l -166 963 l -166 789 l -655 789 "},"̆":{"ha":1,"x_min":0,"x_max":0,"o":"m -526 1027 b -410 920 -506 956 -467 920 b -295 1027 -353 920 -315 956 l -135 982 b -410 752 -170 836 -269 752 b -686 982 -551 752 -650 836 "},"̇":{"ha":1,"x_min":0,"x_max":0,"o":"m -410 1022 b -281 891 -337 1022 -281 965 b -410 762 -281 818 -337 762 b -540 891 -484 762 -540 818 b -410 1022 -540 965 -484 1022 "},"̈":{"ha":1,"x_min":0,"x_max":0,"o":"m -574 1006 b -443 876 -500 1006 -443 949 b -574 747 -443 803 -500 747 b -703 876 -647 747 -703 803 b -574 1006 -703 949 -647 1006 m -251 1006 b -122 876 -178 1006 -122 949 b -251 747 -122 803 -178 747 b -381 876 -325 747 -381 803 b -251 1006 -381 949 -325 1006 "},"̊":{"ha":1,"x_min":0,"x_max":0,"o":"m -411 742 b -602 931 -516 742 -602 826 b -411 1119 -602 1034 -516 1119 b -219 931 -305 1119 -219 1034 b -411 742 -219 826 -305 742 m -411 858 b -340 931 -372 858 -340 889 b -411 1003 -340 971 -372 1003 b -482 931 -449 1003 -482 971 b -411 858 -482 889 -449 858 "},"̋":{"ha":1,"x_min":0,"x_max":0,"o":"m -376 767 l -212 998 l 13 998 l -167 767 m -657 767 l -512 998 l -291 998 l -455 767 "},"̌":{"ha":1,"x_min":0,"x_max":0,"o":"m -489 991 l -410 891 l -331 991 l -134 991 l -291 760 l -530 760 l -686 991 "},"̦":{"ha":1,"x_min":0,"x_max":0,"o":"m -290 -56 l -361 -342 l -533 -342 l -499 -56 "},"̧":{"ha":1,"x_min":0,"x_max":0,"o":"m -346 -223 l -545 -223 l -468 5 l -274 5 "},"̨":{"ha":1,"x_min":0,"x_max":0,"o":"m -201 -211 b -408 -292 -253 -261 -323 -292 b -618 -140 -530 -292 -618 -233 b -403 62 -618 -34 -521 18 l -325 27 b -425 -88 -411 -20 -425 -58 b -378 -127 -425 -112 -408 -127 b -313 -100 -354 -127 -333 -117 "},"̵":{"ha":1,"x_min":0,"x_max":0,"o":"m -149 276 l -670 276 l -670 447 l -149 447 "},"̶":{"ha":1,"x_min":0,"x_max":0,"o":"m 126 276 l -945 276 l -945 447 l 126 447 "},"Δ":{"ha":953,"x_min":0,"x_max":0,"o":"m 918 182 l 918 0 l 35 0 l 35 182 l 338 972 l 615 972 m 285 215 l 669 215 l 477 745 "},"Ω":{"ha":1168,"x_min":0,"x_max":0,"o":"m 199 206 b 72 518 118 286 72 394 b 584 990 72 790 283 990 b 1097 518 884 990 1097 790 b 969 206 1097 394 1049 286 l 1133 206 l 1133 0 l 670 0 l 670 188 b 854 472 781 223 854 329 b 584 768 854 648 742 768 b 313 472 425 768 313 648 b 497 188 313 329 386 223 l 497 0 l 35 0 l 35 206 "},"μ":{"ha":800,"x_min":0,"x_max":0,"o":"m 72 -278 l 72 681 l 289 681 l 289 311 b 397 185 289 231 329 185 b 507 315 457 185 507 226 l 507 681 l 724 681 l 724 0 l 516 0 l 516 85 b 313 -19 473 14 404 -19 b 281 -17 302 -19 291 -18 l 281 -278 "},"π":{"ha":806,"x_min":0,"x_max":0,"o":"m 734 0 l 517 0 l 517 489 l 294 489 l 294 0 l 76 0 l 76 681 l 734 681 "},"ẞ":{"ha":994,"x_min":0,"x_max":0,"o":"m 461 536 l 620 748 b 493 780 587 770 547 780 b 312 613 374 780 312 713 l 312 0 l 79 0 l 79 620 b 498 990 79 802 187 990 b 910 804 706 990 828 907 l 713 548 b 946 283 857 509 946 415 b 563 -17 946 98 793 -17 b 394 -2 494 -17 440 -13 l 426 202 b 527 191 460 194 492 191 b 706 283 647 191 706 222 b 517 376 706 346 639 376 l 461 376 "}," ":{"ha":973,"x_min":0,"x_max":0,"o":""}," ":{"ha":403,"x_min":0,"x_max":0,"o":""}," ":{"ha":104,"x_min":0,"x_max":0,"o":""},"​":{"ha":0,"x_min":0,"x_max":0,"o":""},"﻿":{"ha":0,"x_min":0,"x_max":0,"o":""},"‐":{"ha":541,"x_min":0,"x_max":0,"o":"m 479 276 l 62 276 l 62 462 l 479 462 "},"‑":{"ha":541,"x_min":0,"x_max":0,"o":"m 479 276 l 62 276 l 62 462 l 479 462 "},"‒":{"ha":833,"x_min":0,"x_max":0,"o":"m 758 280 l 74 280 l 74 458 l 758 458 "},"–":{"ha":790,"x_min":0,"x_max":0,"o":"m 737 280 l 53 280 l 53 458 l 737 458 "},"—":{"ha":1094,"x_min":0,"x_max":0,"o":"m 1068 280 l 26 280 l 26 458 l 1068 458 "},"‘":{"ha":392,"x_min":0,"x_max":0,"o":"m 53 549 l 164 1000 l 345 1000 l 290 549 "},"’":{"ha":392,"x_min":0,"x_max":0,"o":"m 340 1000 l 228 549 l 47 549 l 102 1000 "},"‚":{"ha":392,"x_min":0,"x_max":0,"o":"m 340 252 l 228 -199 l 47 -199 l 102 252 "},"“":{"ha":724,"x_min":0,"x_max":0,"o":"m 53 549 l 164 1000 l 345 1000 l 290 549 m 385 549 l 496 1000 l 677 1000 l 622 549 "},"”":{"ha":724,"x_min":0,"x_max":0,"o":"m 672 1000 l 560 549 l 379 549 l 434 1000 m 340 1000 l 228 549 l 47 549 l 102 1000 "},"„":{"ha":724,"x_min":0,"x_max":0,"o":"m 672 252 l 560 -199 l 379 -199 l 434 252 m 340 252 l 228 -199 l 47 -199 l 102 252 "},"†":{"ha":556,"x_min":0,"x_max":0,"o":"m 197 400 l 197 688 l 44 688 l 44 847 l 197 847 l 197 1000 l 360 1000 l 360 847 l 512 847 l 512 688 l 360 688 l 360 400 "},"‡":{"ha":556,"x_min":0,"x_max":0,"o":"m 360 890 l 512 890 l 512 741 l 360 741 l 360 649 l 512 649 l 512 500 l 360 500 l 360 390 l 197 390 l 197 500 l 44 500 l 44 649 l 197 649 l 197 741 l 44 741 l 44 890 l 197 890 l 197 1000 l 360 1000 "},"•":{"ha":640,"x_min":0,"x_max":0,"o":"m 319 609 b 561 369 452 609 561 502 b 319 128 561 235 452 128 b 79 369 187 128 79 235 b 319 609 79 502 187 609 "},"‣":{"ha":663,"x_min":0,"x_max":0,"o":"m 95 60 l 95 678 l 628 369 "},"…":{"ha":1176,"x_min":0,"x_max":0,"o":"m 202 279 b 349 132 281 279 349 211 b 202 -18 349 51 281 -18 b 53 132 122 -18 53 51 b 202 279 53 211 122 279 m 589 279 b 737 132 668 279 737 211 b 589 -18 737 51 668 -18 b 440 132 508 -18 440 51 b 589 279 440 211 508 279 m 976 279 b 1124 132 1055 279 1124 211 b 976 -18 1124 51 1055 -18 b 826 132 895 -18 826 51 b 976 279 826 211 895 279 "},"‰":{"ha":1968,"x_min":0,"x_max":0,"o":"m 311 990 b 585 722 468 990 585 876 b 311 454 585 568 468 454 b 38 722 155 454 38 568 b 311 990 38 876 155 990 m 311 828 b 210 722 253 828 210 783 b 311 616 210 662 253 616 b 413 722 370 616 413 662 b 311 828 413 783 370 828 m 443 0 l 231 0 l 923 972 l 1134 972 m 1059 518 b 1333 250 1216 518 1333 403 b 1059 -18 1333 96 1216 -18 b 786 250 903 -18 786 96 b 1059 518 786 401 903 518 m 1059 356 b 958 250 1001 356 958 310 b 1059 144 958 190 1001 144 b 1160 250 1118 144 1160 190 b 1059 356 1160 311 1118 356 m 1656 518 b 1930 250 1813 518 1930 404 b 1656 -18 1930 96 1813 -18 b 1383 250 1500 -18 1383 96 b 1656 518 1383 401 1500 518 m 1656 356 b 1556 250 1598 356 1556 310 b 1656 144 1556 190 1598 144 b 1758 250 1715 144 1758 190 b 1656 356 1758 311 1715 356 "},"′":{"ha":410,"x_min":0,"x_max":0,"o":"m 357 972 l 253 483 l 47 483 l 151 972 "},"″":{"ha":699,"x_min":0,"x_max":0,"o":"m 647 972 l 542 483 l 337 483 l 441 972 m 357 972 l 253 483 l 47 483 l 151 972 "},"‴":{"ha":962,"x_min":0,"x_max":0,"o":"m 633 972 l 528 483 l 323 483 l 427 972 m 909 972 l 805 483 l 599 483 l 703 972 m 357 972 l 253 483 l 47 483 l 151 972 "},"‹":{"ha":444,"x_min":0,"x_max":0,"o":"m 396 90 l 185 90 l 49 369 l 185 648 l 396 648 l 259 369 "},"›":{"ha":444,"x_min":0,"x_max":0,"o":"m 48 648 l 258 648 l 395 369 l 258 90 l 48 90 l 185 369 "},"⁄":{"ha":340,"x_min":0,"x_max":0,"o":"m -42 0 l -231 0 l 382 972 l 572 972 "},"⁰":{"ha":619,"x_min":0,"x_max":0,"o":"m 310 983 b 573 683 457 983 573 871 b 310 384 573 496 457 384 b 47 683 163 384 47 496 b 310 983 47 871 163 983 m 310 835 b 207 683 251 835 207 783 b 310 531 207 583 251 531 b 413 683 368 531 413 583 b 310 835 413 783 368 835 "},"ⁱ":{"ha":271,"x_min":0,"x_max":0,"o":"m 210 394 l 60 394 l 60 884 l 210 884 m 135 1128 b 226 1038 187 1128 226 1089 b 135 947 226 986 187 947 b 44 1038 84 947 44 986 b 135 1128 44 1089 84 1128 "},"⁴":{"ha":515,"x_min":0,"x_max":0,"o":"m 430 624 l 497 624 l 497 487 l 430 487 l 430 394 l 276 394 l 276 487 l 19 487 l 19 592 l 199 972 l 367 972 l 199 624 l 276 624 l 276 683 l 322 779 l 430 779 "},"⁵":{"ha":517,"x_min":0,"x_max":0,"o":"m 439 832 l 215 832 l 213 760 l 256 760 b 476 588 396 760 476 694 b 246 383 476 465 381 383 b 31 458 154 383 77 417 l 101 575 b 245 522 128 553 187 522 b 317 577 292 522 317 543 b 224 630 317 610 288 630 l 76 630 l 85 972 l 439 972 "},"⁶":{"ha":528,"x_min":0,"x_max":0,"o":"m 285 782 b 497 589 424 781 497 694 b 263 384 497 470 396 384 b 28 584 129 384 28 468 b 89 752 28 640 51 696 l 240 972 l 424 972 m 263 656 b 190 588 220 656 190 626 b 263 519 190 548 220 519 b 335 588 304 519 335 548 b 263 656 335 626 304 656 "},"⁷":{"ha":485,"x_min":0,"x_max":0,"o":"m 461 851 l 239 394 l 55 394 l 278 830 l 28 830 l 28 972 l 461 972 "},"⁸":{"ha":559,"x_min":0,"x_max":0,"o":"m 279 983 b 504 815 403 983 504 920 b 417 686 504 750 467 710 b 519 552 474 664 519 623 b 279 384 519 447 411 384 b 40 552 148 384 40 447 b 142 686 40 622 84 664 b 54 815 92 710 54 750 b 279 983 54 920 156 983 m 279 629 b 208 571 238 629 208 607 b 279 513 208 535 238 513 b 351 571 320 513 351 535 b 279 629 351 607 320 629 m 279 853 b 218 800 244 853 218 833 b 279 748 218 768 244 748 b 341 800 315 748 341 768 b 279 853 341 833 315 853 "},"⁹":{"ha":528,"x_min":0,"x_max":0,"o":"m 242 585 b 31 777 103 586 31 672 b 265 983 31 897 131 983 b 499 783 398 983 499 899 b 439 615 499 726 477 670 l 288 394 l 103 394 m 265 710 b 338 779 308 710 338 740 b 265 847 338 819 308 847 b 192 779 222 847 192 819 b 265 710 192 740 222 710 "},"ⁿ":{"ha":585,"x_min":0,"x_max":0,"o":"m 344 898 b 528 709 451 898 528 823 l 528 394 l 378 394 l 378 662 b 297 757 378 724 348 757 b 210 661 249 757 210 726 l 210 394 l 60 394 l 60 884 l 205 884 l 205 828 b 344 898 237 877 285 898 "},"₀":{"ha":619,"x_min":0,"x_max":0,"o":"m 310 321 b 573 22 457 321 573 209 b 310 -278 573 -166 457 -278 b 47 22 163 -278 47 -166 b 310 321 47 209 163 321 m 310 174 b 207 22 251 174 207 122 b 310 -131 207 -78 251 -131 b 413 22 368 -131 413 -78 b 310 174 413 122 368 174 "},"₁":{"ha":376,"x_min":0,"x_max":0,"o":"m 302 -267 l 148 -267 l 148 110 l 24 67 l 24 217 l 302 319 "},"₂":{"ha":507,"x_min":0,"x_max":0,"o":"m 31 217 b 256 321 71 264 141 321 b 463 133 381 321 463 248 b 366 -49 463 67 440 17 l 281 -125 l 476 -125 l 476 -267 l 64 -267 l 64 -147 l 264 38 b 304 114 290 62 304 88 b 237 174 304 150 274 174 b 118 110 187 174 151 143 "},"₃":{"ha":508,"x_min":0,"x_max":0,"o":"m 233 321 b 456 153 363 321 456 255 b 373 24 456 94 426 49 b 468 -106 433 -1 468 -47 b 235 -278 468 -223 355 -278 b 24 -192 145 -278 72 -247 l 108 -94 b 227 -144 141 -126 181 -144 b 308 -92 272 -144 308 -127 b 216 -39 308 -57 266 -39 l 151 -39 l 151 88 l 218 88 b 298 139 263 88 298 106 b 226 186 298 171 270 186 b 106 134 172 186 133 163 l 25 235 b 233 321 73 285 136 321 "},"₄":{"ha":515,"x_min":0,"x_max":0,"o":"m 430 -38 l 497 -38 l 497 -175 l 430 -175 l 430 -267 l 276 -267 l 276 -175 l 19 -175 l 19 -69 l 199 310 l 367 310 l 199 -38 l 276 -38 l 276 22 l 322 117 l 430 117 "},"₅":{"ha":517,"x_min":0,"x_max":0,"o":"m 439 170 l 215 170 l 213 98 l 256 98 b 476 -74 396 98 476 32 b 246 -278 476 -197 381 -278 b 31 -203 154 -278 77 -244 l 101 -87 b 245 -140 128 -108 187 -140 b 317 -85 292 -140 317 -119 b 224 -32 317 -52 288 -32 l 76 -32 l 85 310 l 439 310 "},"₆":{"ha":528,"x_min":0,"x_max":0,"o":"m 285 120 b 497 -73 424 119 497 33 b 263 -278 497 -192 396 -278 b 28 -78 129 -278 28 -194 b 89 90 28 -22 51 34 l 240 310 l 424 310 m 263 -6 b 190 -74 220 -6 190 -35 b 263 -142 190 -114 220 -142 b 335 -74 304 -142 335 -114 b 263 -6 335 -35 304 -6 "},"₇":{"ha":485,"x_min":0,"x_max":0,"o":"m 461 190 l 239 -267 l 55 -267 l 278 168 l 28 168 l 28 310 l 461 310 "},"₈":{"ha":559,"x_min":0,"x_max":0,"o":"m 279 321 b 504 153 403 321 504 258 b 417 24 504 88 467 48 b 519 -110 474 2 519 -39 b 279 -278 519 -215 411 -278 b 40 -110 148 -278 40 -215 b 142 24 40 -40 84 2 b 54 153 92 48 54 88 b 279 321 54 258 156 321 m 279 -33 b 208 -91 238 -33 208 -55 b 279 -149 208 -127 238 -149 b 351 -91 320 -149 351 -127 b 279 -33 351 -55 320 -33 m 279 192 b 218 138 244 192 218 172 b 279 86 218 106 244 86 b 341 138 315 86 341 106 b 279 192 341 172 315 192 "},"₉":{"ha":528,"x_min":0,"x_max":0,"o":"m 242 -77 b 31 115 103 -76 31 10 b 265 321 31 235 131 321 b 499 121 398 321 499 237 b 439 -47 499 65 477 8 l 288 -267 l 103 -267 m 265 49 b 338 117 308 49 338 78 b 265 185 338 157 308 185 b 192 117 222 185 192 157 b 265 49 192 78 222 49 "},"€":{"ha":972,"x_min":0,"x_max":0,"o":"m 726 310 l 410 310 b 615 184 454 228 529 184 b 808 262 697 184 760 216 l 918 93 b 618 -17 840 24 740 -17 b 169 310 396 -17 228 104 l 53 310 l 53 447 l 147 447 b 146 486 146 460 146 473 b 147 525 146 499 146 512 l 53 525 l 53 663 l 169 663 b 618 990 228 868 396 990 b 920 878 736 990 838 951 l 806 709 b 615 788 758 757 694 788 b 409 663 524 788 451 741 l 726 663 l 726 525 l 370 525 b 369 486 369 513 369 499 b 370 447 369 473 369 460 l 726 447 "},"₺":{"ha":972,"x_min":0,"x_max":0,"o":"m 690 471 l 429 354 l 429 212 l 524 212 b 739 351 616 212 684 256 l 915 242 b 509 0 834 94 710 0 l 203 0 l 203 253 l 99 206 l 99 351 l 203 398 l 203 474 l 99 427 l 99 572 l 203 619 l 203 975 l 429 975 l 429 721 l 690 838 l 690 692 l 429 576 l 429 499 l 690 616 "},"℀":{"ha":1389,"x_min":0,"x_max":0,"o":"m 340 990 b 573 772 476 990 573 923 l 573 486 l 430 486 l 430 531 b 287 474 399 500 353 474 b 113 629 180 474 113 535 b 322 781 113 724 190 781 l 422 781 b 324 858 416 831 385 858 b 192 815 268 858 224 838 l 134 927 b 340 990 179 961 249 990 m 326 589 b 426 636 367 589 403 610 l 426 687 l 344 687 b 267 638 290 687 267 664 b 326 589 267 611 286 589 m 510 0 l 320 0 l 933 972 l 1123 972 m 1070 499 b 1276 395 1158 499 1230 460 l 1160 311 b 1067 358 1135 342 1106 358 b 960 240 1008 358 960 314 b 1066 122 960 167 1008 122 b 1162 170 1104 122 1137 140 l 1276 85 b 1070 -17 1229 21 1158 -17 b 807 240 914 -17 807 91 b 1070 499 807 390 914 499 "},"℁":{"ha":1389,"x_min":0,"x_max":0,"o":"m 341 990 b 574 772 478 990 574 923 l 574 486 l 431 486 l 431 531 b 288 474 400 500 355 474 b 115 629 181 474 115 535 b 324 781 115 724 191 781 l 423 781 b 326 858 417 831 387 858 b 193 815 269 858 226 838 l 135 927 b 341 990 181 961 250 990 m 327 589 b 428 636 368 589 404 610 l 428 687 l 345 687 b 268 638 291 687 268 664 b 327 589 268 611 288 589 m 510 0 l 321 0 l 934 972 l 1124 972 m 1216 338 b 1056 376 1169 358 1107 376 b 994 343 1013 376 994 363 b 1073 307 994 319 1028 314 l 1111 301 b 1273 153 1216 285 1273 235 b 1047 -17 1273 47 1189 -17 b 823 36 967 -17 881 -3 l 876 151 b 1047 105 924 122 978 105 b 1122 140 1099 105 1122 117 b 1044 178 1122 160 1099 169 l 1012 183 b 840 335 896 199 840 249 b 1050 499 840 439 918 499 b 1260 455 1129 499 1183 485 "},"℅":{"ha":1389,"x_min":0,"x_max":0,"o":"m 359 990 b 565 886 447 990 519 951 l 449 802 b 356 849 424 833 394 849 b 249 731 297 849 249 805 b 355 613 249 658 297 613 b 451 661 393 613 426 631 l 565 576 b 359 474 518 512 447 474 b 96 731 203 474 96 582 b 359 990 96 881 203 990 m 471 0 l 281 0 l 894 972 l 1084 972 m 1028 499 b 1294 240 1181 499 1294 388 b 1028 -17 1294 92 1181 -17 b 763 240 875 -17 763 92 b 1028 499 763 388 875 499 m 1028 358 b 915 240 963 358 915 310 b 1028 122 915 171 963 122 b 1141 240 1092 122 1141 171 b 1028 358 1141 310 1092 358 "},"℆":{"ha":1389,"x_min":0,"x_max":0,"o":"m 349 990 b 555 886 438 990 509 951 l 440 802 b 346 849 414 833 385 849 b 239 731 288 849 239 805 b 345 613 239 658 287 613 b 441 661 383 613 416 631 l 555 576 b 349 474 508 512 438 474 b 86 731 193 474 86 582 b 349 990 86 881 193 990 m 462 0 l 272 0 l 885 972 l 1075 972 m 1303 205 b 1068 -17 1303 51 1197 -17 b 833 205 940 -17 833 51 l 833 485 l 983 485 l 983 218 b 1068 122 983 151 1019 122 b 1154 218 1118 122 1154 151 l 1154 485 l 1303 485 "},"ℓ":{"ha":717,"x_min":0,"x_max":0,"o":"m 58 435 b 165 474 96 447 132 460 l 166 743 b 426 1018 166 909 269 1018 b 667 778 564 1018 667 920 b 360 360 667 587 544 458 l 360 259 b 440 182 360 209 394 182 b 564 226 488 182 526 201 l 649 67 b 427 -5 589 24 517 -5 b 165 249 263 -5 165 85 l 165 273 l 112 254 m 360 581 b 476 764 433 635 476 697 b 424 836 476 808 457 836 b 360 728 386 836 360 802 "},"№":{"ha":1677,"x_min":0,"x_max":0,"o":"m 1627 231 l 1123 231 l 1123 401 l 1627 401 m 1375 985 b 1640 728 1528 985 1640 876 b 1375 470 1640 581 1528 470 b 1110 728 1222 470 1110 581 b 1375 985 1110 876 1222 985 m 1375 838 b 1270 728 1315 838 1270 792 b 1375 618 1270 664 1315 618 b 1480 728 1435 618 1480 664 b 1375 838 1480 792 1435 838 m 986 0 l 763 0 l 320 593 l 320 0 l 88 0 l 88 972 l 310 972 l 753 379 l 753 972 l 986 972 "},"℗":{"ha":1263,"x_min":0,"x_max":0,"o":"m 631 1052 b 1205 494 949 1052 1205 801 b 631 -66 1205 185 949 -66 b 58 494 314 -66 58 185 b 631 1052 58 801 314 1052 m 631 874 b 245 494 418 874 245 704 b 631 113 245 283 418 113 b 1017 494 844 113 1017 283 b 631 874 1017 704 844 874 m 680 766 b 921 569 838 766 921 685 b 682 377 921 457 838 377 l 586 377 l 586 217 l 417 217 l 417 766 l 680 766 m 586 622 l 586 517 l 678 517 b 749 569 724 517 749 537 b 678 622 749 602 724 622 "},"℠":{"ha":1154,"x_min":0,"x_max":0,"o":"m 400 835 b 265 869 367 849 320 869 b 192 839 223 869 192 860 b 292 803 192 813 240 810 l 310 801 b 465 671 409 788 465 741 b 256 509 465 553 360 509 b 44 560 175 509 98 526 l 103 663 b 257 619 141 642 189 619 b 331 651 299 619 331 628 b 237 688 331 676 299 681 l 215 690 b 57 826 109 701 57 748 b 258 980 57 917 138 980 b 451 938 344 980 395 964 m 975 518 l 975 791 l 892 558 l 756 558 l 670 793 l 670 518 l 529 518 l 529 972 l 726 972 l 824 719 l 921 972 l 1119 972 l 1119 518 "},"™":{"ha":1153,"x_min":0,"x_max":0,"o":"m 974 518 l 974 791 l 892 558 l 755 558 l 670 793 l 670 518 l 528 518 l 528 972 l 725 972 l 824 719 l 921 972 l 1118 972 l 1118 518 m 178 518 l 178 842 l 35 842 l 35 972 l 463 972 l 463 842 l 320 842 l 320 518 "},"Ω":{"ha":1168,"x_min":0,"x_max":0,"o":"m 199 206 b 72 518 118 286 72 394 b 584 990 72 790 283 990 b 1097 518 884 990 1097 790 b 969 206 1097 394 1049 286 l 1133 206 l 1133 0 l 670 0 l 670 188 b 854 472 781 223 854 329 b 584 768 854 648 742 768 b 313 472 425 768 313 648 b 497 188 313 329 386 223 l 497 0 l 35 0 l 35 206 "},"℮":{"ha":1389,"x_min":0,"x_max":0,"o":"m 369 249 b 480 46 369 156 397 85 b 694 -3 544 15 617 -3 b 1098 206 863 -3 1012 75 l 1165 153 b 694 -87 1063 2 890 -87 b 125 486 382 -87 125 142 b 694 1060 125 830 382 1060 b 1264 486 1007 1060 1264 830 b 1263 444 1264 472 1263 458 l 369 444 m 1026 528 l 1026 719 b 917 922 1026 810 999 881 b 694 975 851 956 776 975 b 480 926 617 975 544 957 b 369 724 397 887 369 816 l 369 528 "},"⅍":{"ha":1463,"x_min":0,"x_max":0,"o":"m 1282 367 b 1128 408 1245 385 1193 408 b 1048 373 1083 408 1048 397 b 1162 332 1048 343 1103 342 l 1183 328 b 1357 178 1296 310 1357 260 b 1119 -9 1357 42 1238 -9 b 879 50 1026 -9 940 10 l 947 169 b 1121 119 989 145 1042 119 b 1201 156 1167 119 1201 129 b 1096 197 1201 184 1165 189 l 1072 200 b 893 358 949 216 893 267 b 1120 536 893 464 985 536 b 1342 487 1219 536 1277 517 m 627 446 l 469 446 l 444 530 l 263 530 l 238 446 l 82 446 l 266 972 l 442 972 m 302 663 l 404 663 l 353 835 m 562 0 l 372 0 l 985 972 l 1175 972 "},"⅐":{"ha":1242,"x_min":0,"x_max":0,"o":"m 350 0 l 160 0 l 774 972 l 963 972 m 1219 457 l 997 0 l 813 0 l 1036 435 l 785 435 l 785 578 l 1219 578 m 302 394 l 148 394 l 148 772 l 24 729 l 24 878 l 302 981 "},"⅑":{"ha":1260,"x_min":0,"x_max":0,"o":"m 350 0 l 160 0 l 774 972 l 963 972 m 974 190 b 763 383 835 192 763 278 b 997 588 763 502 863 588 b 1231 388 1130 588 1231 504 b 1171 220 1231 332 1209 276 l 1019 0 l 835 0 m 997 316 b 1069 385 1040 316 1069 345 b 997 453 1069 424 1040 453 b 924 385 954 453 924 424 b 997 316 924 345 954 316 m 302 394 l 148 394 l 148 772 l 24 729 l 24 878 l 302 981 "},"⅒":{"ha":1741,"x_min":0,"x_max":0,"o":"m 350 0 l 160 0 l 774 972 l 963 972 m 1048 0 l 894 0 l 894 378 l 769 335 l 769 484 l 1048 587 m 1431 588 b 1694 289 1578 588 1694 476 b 1431 -10 1694 101 1578 -10 b 1168 289 1284 -10 1168 101 b 1431 588 1168 476 1284 588 m 1431 441 b 1328 289 1372 441 1328 389 b 1431 137 1328 189 1372 137 b 1535 289 1490 137 1535 189 b 1431 441 1535 389 1490 441 m 302 394 l 148 394 l 148 772 l 24 729 l 24 878 l 302 981 "},"⅓":{"ha":1240,"x_min":0,"x_max":0,"o":"m 350 0 l 160 0 l 774 972 l 963 972 m 965 588 b 1188 421 1095 588 1188 522 b 1105 291 1188 361 1158 317 b 1200 161 1165 267 1200 221 b 967 -10 1200 44 1087 -10 b 756 75 877 -10 803 20 l 840 174 b 959 124 873 142 913 124 b 1040 176 1003 124 1040 140 b 948 228 1040 210 998 228 l 883 228 l 883 355 l 950 355 b 1030 406 995 355 1030 374 b 958 453 1030 438 1002 453 b 838 401 904 453 865 430 l 757 502 b 965 588 805 552 868 588 m 302 394 l 148 394 l 148 772 l 24 729 l 24 878 l 302 981 "},"⅔":{"ha":1376,"x_min":0,"x_max":0,"o":"m 486 0 l 297 0 l 910 972 l 1099 972 m 1101 588 b 1324 421 1231 588 1324 522 b 1241 291 1324 361 1294 317 b 1336 161 1301 267 1336 221 b 1103 -10 1336 44 1223 -10 b 892 75 1013 -10 940 20 l 976 174 b 1095 124 1009 142 1049 124 b 1176 176 1140 124 1176 140 b 1084 228 1176 210 1134 228 l 1019 228 l 1019 355 l 1086 355 b 1166 406 1131 355 1166 374 b 1094 453 1166 438 1138 453 b 974 401 1040 453 1001 430 l 893 502 b 1101 588 941 552 1004 588 m 31 878 b 256 983 71 926 141 983 b 463 795 381 983 463 910 b 366 613 463 728 440 679 l 281 537 l 476 537 l 476 394 l 64 394 l 64 515 l 264 699 b 304 776 290 724 304 749 b 237 835 304 812 274 835 b 118 772 187 835 151 805 "},"⅕":{"ha":1249,"x_min":0,"x_max":0,"o":"m 350 0 l 160 0 l 774 972 l 963 972 m 1171 438 l 947 438 l 945 365 l 988 365 b 1208 194 1128 365 1208 299 b 978 -11 1208 71 1113 -11 b 763 64 886 -11 809 23 l 833 181 b 977 128 860 159 919 128 b 1049 183 1024 128 1049 149 b 956 235 1049 215 1020 235 l 808 235 l 817 578 l 1171 578 m 302 394 l 148 394 l 148 772 l 24 729 l 24 878 l 302 981 "},"⅖":{"ha":1385,"x_min":0,"x_max":0,"o":"m 486 0 l 297 0 l 910 972 l 1099 972 m 1307 438 l 1083 438 l 1081 365 l 1124 365 b 1344 194 1264 365 1344 299 b 1114 -11 1344 71 1249 -11 b 899 64 1022 -11 945 23 l 969 181 b 1113 128 996 159 1055 128 b 1185 183 1160 128 1185 149 b 1092 235 1185 215 1156 235 l 944 235 l 953 578 l 1307 578 m 31 878 b 256 983 71 926 141 983 b 463 795 381 983 463 910 b 366 613 463 728 440 679 l 281 537 l 476 537 l 476 394 l 64 394 l 64 515 l 264 699 b 304 776 290 724 304 749 b 237 835 304 812 274 835 b 118 772 187 835 151 805 "},"⅗":{"ha":1365,"x_min":0,"x_max":0,"o":"m 466 0 l 276 0 l 890 972 l 1079 972 m 1287 438 l 1063 438 l 1061 365 l 1103 365 b 1324 194 1244 365 1324 299 b 1094 -11 1324 71 1229 -11 b 878 64 1002 -11 925 23 l 949 181 b 1093 128 976 159 1035 128 b 1165 183 1140 128 1165 149 b 1072 235 1165 215 1136 235 l 924 235 l 933 578 l 1287 578 m 233 983 b 456 815 363 983 456 917 b 373 685 456 756 426 711 b 468 556 433 661 468 615 b 235 384 468 439 355 384 b 24 469 145 384 72 415 l 108 568 b 227 518 141 536 181 518 b 308 570 272 518 308 535 b 216 623 308 605 266 623 l 151 623 l 151 749 l 218 749 b 298 801 263 749 298 768 b 226 848 298 833 270 848 b 106 796 172 848 133 824 l 25 897 b 233 983 73 947 136 983 "},"⅘":{"ha":1378,"x_min":0,"x_max":0,"o":"m 478 0 l 289 0 l 902 972 l 1092 972 m 1299 438 l 1075 438 l 1074 365 l 1116 365 b 1336 194 1256 365 1336 299 b 1106 -11 1336 71 1242 -11 b 891 64 1015 -11 938 23 l 962 181 b 1106 128 988 159 1047 128 b 1177 183 1153 128 1177 149 b 1085 235 1177 215 1149 235 l 937 235 l 945 578 l 1299 578 m 430 624 l 497 624 l 497 487 l 430 487 l 430 394 l 276 394 l 276 487 l 19 487 l 19 592 l 199 972 l 367 972 l 199 624 l 276 624 l 276 683 l 322 779 l 430 779 "},"⅙":{"ha":1202,"x_min":0,"x_max":0,"o":"m 350 0 l 160 0 l 774 972 l 963 972 m 959 388 b 1172 194 1098 386 1172 300 b 937 -10 1172 76 1070 -10 b 702 190 803 -10 702 74 b 763 358 702 246 725 301 l 914 578 l 1099 578 m 937 261 b 865 193 894 261 865 232 b 937 125 865 153 894 125 b 1010 193 978 125 1010 153 b 937 261 1010 232 978 261 m 302 394 l 148 394 l 148 772 l 24 729 l 24 878 l 302 981 "},"⅚":{"ha":1325,"x_min":0,"x_max":0,"o":"m 473 0 l 283 0 l 897 972 l 1086 972 m 1082 388 b 1294 194 1221 386 1294 300 b 1060 -10 1294 76 1193 -10 b 825 190 926 -10 825 74 b 886 358 825 246 848 301 l 1037 578 l 1222 578 m 1060 261 b 988 193 1017 261 988 232 b 1060 125 988 153 1017 125 b 1133 193 1101 125 1133 153 b 1060 261 1133 232 1101 261 m 439 832 l 215 832 l 213 760 l 256 760 b 476 588 396 760 476 694 b 246 383 476 465 381 383 b 31 458 154 383 77 417 l 101 575 b 245 522 128 553 187 522 b 317 577 292 522 317 543 b 224 630 317 610 288 630 l 76 630 l 85 972 l 439 972 "},"⅛":{"ha":1285,"x_min":0,"x_max":0,"o":"m 350 0 l 160 0 l 774 972 l 963 972 m 1005 588 b 1230 421 1129 588 1230 526 b 1142 292 1230 356 1192 315 b 1245 158 1200 269 1245 228 b 1005 -10 1245 52 1137 -10 b 765 158 874 -10 765 52 b 867 292 765 228 810 269 b 780 421 817 315 780 356 b 1005 588 780 526 881 588 m 1005 235 b 934 176 964 235 934 213 b 1005 118 934 140 964 118 b 1076 176 1046 118 1076 140 b 1005 235 1076 213 1046 235 m 1005 459 b 944 406 969 459 944 439 b 1005 353 944 374 969 353 b 1067 406 1040 353 1067 374 b 1005 459 1067 439 1040 459 m 302 394 l 148 394 l 148 772 l 24 729 l 24 878 l 302 981 "},"⅜":{"ha":1401,"x_min":0,"x_max":0,"o":"m 466 0 l 276 0 l 890 972 l 1079 972 m 1121 588 b 1346 421 1245 588 1346 526 b 1258 292 1346 356 1308 315 b 1361 158 1316 269 1361 228 b 1121 -10 1361 52 1253 -10 b 881 158 990 -10 881 52 b 983 292 881 228 926 269 b 896 421 933 315 896 356 b 1121 588 896 526 997 588 m 1121 235 b 1050 176 1080 235 1050 213 b 1121 118 1050 140 1080 118 b 1192 176 1162 118 1192 140 b 1121 235 1192 213 1162 235 m 1121 459 b 1060 406 1085 459 1060 439 b 1121 353 1060 374 1085 353 b 1183 406 1156 353 1183 374 b 1121 459 1183 439 1156 459 m 233 983 b 456 815 363 983 456 917 b 373 685 456 756 426 711 b 468 556 433 661 468 615 b 235 384 468 439 355 384 b 24 469 145 384 72 415 l 108 568 b 227 518 141 536 181 518 b 308 570 272 518 308 535 b 216 623 308 605 266 623 l 151 623 l 151 749 l 218 749 b 298 801 263 749 298 768 b 226 848 298 833 270 848 b 106 796 172 848 133 824 l 25 897 b 233 983 73 947 136 983 "},"⅝":{"ha":1408,"x_min":0,"x_max":0,"o":"m 473 0 l 283 0 l 897 972 l 1086 972 m 1128 588 b 1353 421 1252 588 1353 526 b 1265 292 1353 356 1315 315 b 1368 158 1323 269 1368 228 b 1128 -10 1368 52 1260 -10 b 888 158 997 -10 888 52 b 990 292 888 228 933 269 b 903 421 940 315 903 356 b 1128 588 903 526 1004 588 m 1128 235 b 1057 176 1087 235 1057 213 b 1128 118 1057 140 1087 118 b 1199 176 1169 118 1199 140 b 1128 235 1199 213 1169 235 m 1128 459 b 1067 406 1092 459 1067 439 b 1128 353 1067 374 1092 353 b 1190 406 1163 353 1190 374 b 1128 459 1190 439 1163 459 m 439 832 l 215 832 l 213 760 l 256 760 b 476 588 396 760 476 694 b 246 383 476 465 381 383 b 31 458 154 383 77 417 l 101 575 b 245 522 128 553 187 522 b 317 577 292 522 317 543 b 224 630 317 610 288 630 l 76 630 l 85 972 l 439 972 "},"⅞":{"ha":1286,"x_min":0,"x_max":0,"o":"m 351 0 l 162 0 l 775 972 l 965 972 m 1006 588 b 1231 421 1131 588 1231 526 b 1144 292 1231 356 1194 315 b 1247 158 1201 269 1247 228 b 1006 -10 1247 52 1138 -10 b 767 158 875 -10 767 52 b 869 292 767 228 811 269 b 781 421 819 315 781 356 b 1006 588 781 526 883 588 m 1006 235 b 935 176 965 235 935 213 b 1006 118 935 140 965 118 b 1078 176 1047 118 1078 140 b 1006 235 1078 213 1047 235 m 1006 459 b 945 406 971 459 945 439 b 1006 353 945 374 971 353 b 1068 406 1042 353 1068 374 b 1006 459 1068 439 1042 459 m 461 851 l 239 394 l 55 394 l 278 830 l 28 830 l 28 972 l 461 972 "},"⅟":{"ha":732,"x_min":0,"x_max":0,"o":"m 350 0 l 160 0 l 774 972 l 963 972 m 302 394 l 148 394 l 148 772 l 24 729 l 24 878 l 302 981 "},"↉":{"ha":1431,"x_min":0,"x_max":0,"o":"m 541 0 l 351 0 l 965 972 l 1154 972 m 1156 588 b 1379 421 1286 588 1379 522 b 1296 291 1379 361 1349 317 b 1391 161 1356 267 1391 221 b 1158 -10 1391 44 1278 -10 b 947 75 1068 -10 994 20 l 1031 174 b 1150 124 1064 142 1104 124 b 1231 176 1194 124 1231 140 b 1139 228 1231 210 1189 228 l 1074 228 l 1074 355 l 1141 355 b 1221 406 1186 355 1221 374 b 1149 453 1221 438 1193 453 b 1029 401 1095 453 1056 430 l 948 502 b 1156 588 996 552 1059 588 m 310 983 b 573 683 457 983 573 871 b 310 384 573 496 457 384 b 47 683 163 384 47 496 b 310 983 47 871 163 983 m 310 835 b 207 683 251 835 207 783 b 310 531 207 583 251 531 b 413 683 368 531 413 583 b 310 835 413 783 368 835 "},"←":{"ha":1389,"x_min":0,"x_max":0,"o":"m 640 364 b 440 370 576 364 514 364 b 618 208 504 317 552 272 l 704 124 l 573 -7 l 109 457 l 573 921 l 704 790 l 618 706 b 440 544 552 642 504 597 b 640 550 514 550 576 550 l 1280 550 l 1280 364 "},"↑":{"ha":1389,"x_min":0,"x_max":0,"o":"m 601 544 b 608 744 601 608 601 670 b 446 566 554 680 510 632 l 361 480 l 231 611 l 694 1075 l 1158 611 l 1028 480 l 943 566 b 781 744 879 632 835 680 b 788 544 788 670 788 608 l 788 -96 l 601 -96 "},"→":{"ha":1389,"x_min":0,"x_max":0,"o":"m 749 550 b 949 544 813 550 875 550 b 771 706 885 597 837 642 l 685 790 l 816 921 l 1280 457 l 816 -7 l 685 124 l 771 208 b 949 370 837 272 885 317 b 749 364 875 364 813 364 l 109 364 l 109 550 "},"↓":{"ha":1389,"x_min":0,"x_max":0,"o":"m 788 435 b 781 235 788 371 788 309 b 943 413 835 299 879 347 l 1028 499 l 1158 368 l 694 -96 l 231 368 l 361 499 l 446 413 b 608 235 510 347 554 299 b 601 435 601 309 601 371 l 601 1075 l 788 1075 "},"↖":{"ha":1389,"x_min":0,"x_max":0,"o":"m 558 443 b 419 590 512 489 468 533 b 431 349 428 506 431 440 l 433 228 l 247 228 l 247 885 l 903 885 l 903 699 l 783 701 b 542 712 692 701 626 704 b 689 574 599 664 644 619 l 1141 122 l 1010 -10 "},"↗":{"ha":1389,"x_min":0,"x_max":0,"o":"m 667 561 b 813 699 713 606 757 651 b 573 688 731 691 665 688 l 452 686 l 452 872 l 1109 872 l 1109 215 l 923 215 l 924 335 b 936 576 926 427 928 493 b 799 430 888 519 844 475 l 346 -22 l 215 109 "},"↘":{"ha":1389,"x_min":0,"x_max":0,"o":"m 799 484 b 937 338 844 438 888 394 b 925 578 928 421 926 487 l 924 699 l 1109 699 l 1109 42 l 452 42 l 452 228 l 573 227 b 813 215 665 226 731 223 b 667 353 757 264 713 308 l 215 806 l 347 937 "},"↙":{"ha":1389,"x_min":0,"x_max":0,"o":"m 689 340 b 543 201 643 294 599 250 b 783 213 626 209 692 212 l 904 215 l 904 29 l 247 29 l 247 685 l 433 685 l 432 565 b 420 324 431 473 428 408 b 558 470 469 381 513 425 l 1010 923 l 1142 792 "},"∂":{"ha":814,"x_min":0,"x_max":0,"o":"m 297 1013 b 769 351 571 896 769 649 b 399 -18 769 139 621 -18 b 37 311 192 -18 37 123 b 356 644 37 503 175 644 b 501 605 411 644 460 631 b 170 872 434 718 315 799 m 407 461 b 259 315 322 461 259 401 b 407 170 259 231 322 170 b 555 315 492 170 555 231 b 407 461 555 401 492 461 "},"∆":{"ha":953,"x_min":0,"x_max":0,"o":"m 918 182 l 918 0 l 35 0 l 35 182 l 338 972 l 615 972 m 285 215 l 669 215 l 477 745 "},"∏":{"ha":1014,"x_min":0,"x_max":0,"o":"m 926 -184 l 694 -184 l 694 758 l 320 758 l 320 -184 l 88 -184 l 88 972 l 926 972 "},"∑":{"ha":858,"x_min":0,"x_max":0,"o":"m 804 757 l 386 757 l 651 468 l 651 329 l 380 31 l 805 31 l 805 -184 l 53 -184 l 53 -2 l 413 395 l 53 790 l 53 972 l 804 972 "},"−":{"ha":833,"x_min":0,"x_max":0,"o":"m 744 280 l 90 280 l 90 458 l 744 458 "},"∙":{"ha":833,"x_min":0,"x_max":0,"o":"m 416 609 b 658 369 549 609 658 502 b 416 128 658 235 549 128 b 176 369 283 128 176 235 b 416 609 176 502 283 609 "},"√":{"ha":938,"x_min":0,"x_max":0,"o":"m 543 -184 l 266 -184 l 9 510 l 256 510 l 406 78 l 685 1000 l 930 1000 "},"∞":{"ha":1210,"x_min":0,"x_max":0,"o":"m 24 367 b 322 672 24 553 162 672 b 605 499 436 672 515 597 b 888 672 695 597 774 672 b 1186 367 1048 672 1186 553 b 888 62 1186 180 1048 62 b 605 234 774 62 695 136 b 322 62 515 136 436 62 b 24 367 162 62 24 180 m 215 367 b 322 241 215 284 262 241 b 483 366 365 241 400 276 l 483 367 b 322 492 400 457 365 492 b 215 367 262 492 215 449 m 996 367 b 888 492 996 449 949 492 b 727 367 846 492 810 457 b 888 241 810 276 846 241 b 996 367 949 241 996 284 "},"∫":{"ha":461,"x_min":0,"x_max":0,"o":"m 447 783 b 410 788 435 786 423 788 b 338 701 362 788 338 760 l 338 82 b 79 -202 338 -101 238 -202 b -31 -188 38 -202 1 -197 l 13 5 b 50 1 24 2 36 1 b 121 87 97 1 121 28 l 121 706 b 380 990 121 890 222 990 b 490 976 422 990 458 985 "},"≅":{"ha":833,"x_min":0,"x_max":0,"o":"m 744 124 l 90 124 l 90 303 l 744 303 m 744 435 l 90 435 l 90 615 l 744 615 m 763 827 b 544 713 710 754 628 713 b 284 783 421 713 356 783 b 167 715 246 783 208 759 l 72 844 b 289 958 124 917 206 958 b 549 888 413 958 478 888 b 667 957 588 888 625 912 "},"≈":{"ha":833,"x_min":0,"x_max":0,"o":"m 763 513 b 544 399 710 440 628 399 b 284 469 421 399 356 469 b 167 401 246 469 208 445 l 72 530 b 289 644 124 603 206 644 b 549 574 413 644 478 574 b 667 643 588 574 625 598 m 763 205 b 544 91 710 132 628 91 b 284 161 421 91 356 161 b 167 92 246 161 208 137 l 72 222 b 289 335 124 294 206 335 b 549 266 413 335 478 266 b 667 335 588 266 625 290 "},"≙":{"ha":833,"x_min":0,"x_max":0,"o":"m 744 124 l 90 124 l 90 303 l 744 303 m 744 435 l 90 435 l 90 615 l 744 615 m 496 717 l 417 817 l 338 717 l 141 717 l 297 947 l 536 947 l 693 717 "},"≠":{"ha":833,"x_min":0,"x_max":0,"o":"m 744 124 l 405 124 l 351 0 l 166 0 l 219 124 l 90 124 l 90 303 l 297 303 l 355 435 l 90 435 l 90 615 l 433 615 l 487 739 l 672 739 l 618 615 l 744 615 l 744 435 l 540 435 l 483 303 l 744 303 "},"≤":{"ha":833,"x_min":0,"x_max":0,"o":"m 703 656 l 349 533 l 703 409 l 703 204 l 131 434 l 131 631 l 703 861 m 131 179 l 703 179 l 703 0 l 131 0 "},"≥":{"ha":833,"x_min":0,"x_max":0,"o":"m 131 861 l 703 631 l 703 434 l 131 204 l 131 409 l 485 533 l 131 656 m 703 0 l 131 0 l 131 179 l 703 179 "},"⋅":{"ha":833,"x_min":0,"x_max":0,"o":"m 417 517 b 565 369 497 517 565 449 b 417 219 565 289 497 219 b 268 369 338 219 268 289 b 417 517 268 449 338 517 "},"∅":{"ha":936,"x_min":0,"x_max":0,"o":"m 848 615 l 774 540 b 822 361 804 488 822 426 b 468 7 822 165 664 7 b 289 56 402 7 341 25 l 215 -19 l 88 108 l 162 181 b 113 361 131 234 113 295 b 468 716 113 557 272 716 b 647 667 533 716 594 698 l 722 741 m 292 361 b 302 300 292 340 295 319 l 528 526 b 468 537 509 533 489 537 b 292 361 370 537 292 458 m 468 186 b 643 361 565 186 643 264 b 633 419 643 381 640 401 l 409 196 b 468 186 428 190 447 186 "},"①":{"ha":1424,"x_min":0,"x_max":0,"o":"m 713 1122 b 1363 488 1072 1122 1363 837 b 713 -149 1363 137 1072 -149 b 62 488 352 -149 62 137 b 713 1122 62 837 352 1122 m 713 928 b 265 488 465 928 265 731 b 713 44 265 242 465 44 b 1160 488 959 44 1160 242 b 713 928 1160 731 959 928 m 813 198 l 656 198 l 656 581 l 525 535 l 525 688 l 813 793 "},"②":{"ha":1424,"x_min":0,"x_max":0,"o":"m 713 1122 b 1363 488 1072 1122 1363 837 b 713 -149 1363 137 1072 -149 b 62 488 352 -149 62 137 b 713 1122 62 837 352 1122 m 713 928 b 265 488 465 928 265 731 b 713 44 265 242 465 44 b 1160 488 959 44 1160 242 b 713 928 1160 731 959 928 m 481 689 b 711 795 522 737 593 795 b 923 604 838 795 923 720 b 823 419 923 535 897 485 l 736 342 l 935 342 l 935 198 l 515 198 l 515 321 l 719 507 b 760 584 747 532 760 558 b 692 645 760 622 730 645 b 570 581 640 645 604 614 "},"③":{"ha":1424,"x_min":0,"x_max":0,"o":"m 713 1122 b 1363 488 1072 1122 1363 837 b 713 -149 1363 137 1072 -149 b 62 488 352 -149 62 137 b 713 1122 62 837 352 1122 m 713 928 b 265 488 465 928 265 731 b 713 44 265 242 465 44 b 1160 488 959 44 1160 242 b 713 928 1160 731 959 928 m 706 795 b 933 624 839 795 933 728 b 849 493 933 564 903 519 b 946 362 910 468 946 422 b 708 187 946 243 831 187 b 492 274 616 187 541 218 l 578 374 b 700 323 612 341 653 323 b 783 375 745 323 783 340 b 689 430 783 411 740 430 l 623 430 l 623 558 l 690 558 b 773 610 738 558 773 577 b 699 658 773 642 744 658 b 577 605 644 658 604 633 l 494 708 b 706 795 542 758 607 795 "},"④":{"ha":1424,"x_min":0,"x_max":0,"o":"m 713 1122 b 1363 488 1072 1122 1363 837 b 713 -149 1363 137 1072 -149 b 62 488 352 -149 62 137 b 713 1122 62 837 352 1122 m 713 928 b 265 488 465 928 265 731 b 713 44 265 242 465 44 b 1160 488 959 44 1160 242 b 713 928 1160 731 959 928 m 876 431 l 945 431 l 945 292 l 876 292 l 876 198 l 719 198 l 719 292 l 456 292 l 456 398 l 641 784 l 812 784 l 641 431 l 719 431 l 719 487 l 768 588 l 876 588 "},"⑤":{"ha":1424,"x_min":0,"x_max":0,"o":"m 713 1122 b 1363 488 1072 1122 1363 837 b 713 -149 1363 137 1072 -149 b 62 488 352 -149 62 137 b 713 1122 62 837 352 1122 m 713 928 b 265 488 465 928 265 731 b 713 44 265 242 465 44 b 1160 488 959 44 1160 242 b 713 928 1160 731 959 928 m 908 641 l 680 641 l 678 568 l 724 568 b 947 394 866 568 947 501 b 712 187 947 270 850 187 b 492 263 618 187 540 221 l 564 381 b 711 328 591 360 651 328 b 784 383 760 328 784 349 b 689 437 784 416 756 437 l 539 437 l 547 784 l 908 784 "},"⑥":{"ha":1424,"x_min":0,"x_max":0,"o":"m 713 1122 b 1363 488 1072 1122 1363 837 b 713 -149 1363 137 1072 -149 b 62 488 352 -149 62 137 b 713 1122 62 837 352 1122 m 713 928 b 265 488 465 928 265 731 b 713 44 265 242 465 44 b 1160 488 959 44 1160 242 b 713 928 1160 731 959 928 m 732 591 b 948 396 872 590 948 502 b 709 187 948 274 844 187 b 470 390 574 187 470 272 b 533 561 470 447 493 503 l 686 784 l 874 784 m 709 463 b 635 394 666 463 635 433 b 709 325 635 354 666 325 b 783 394 751 325 783 354 b 709 463 783 433 751 463 "},"⑦":{"ha":1424,"x_min":0,"x_max":0,"o":"m 713 1122 b 1363 488 1072 1122 1363 837 b 713 -149 1363 137 1072 -149 b 62 488 352 -149 62 137 b 713 1122 62 837 352 1122 m 713 928 b 265 488 465 928 265 731 b 713 44 265 242 465 44 b 1160 488 959 44 1160 242 b 713 928 1160 731 959 928 m 951 661 l 723 198 l 535 198 l 765 640 l 508 640 l 508 784 l 951 784 "},"⑧":{"ha":1424,"x_min":0,"x_max":0,"o":"m 713 1122 b 1363 488 1072 1122 1363 837 b 713 -149 1363 137 1072 -149 b 62 488 352 -149 62 137 b 713 1122 62 837 352 1122 m 713 928 b 265 488 465 928 265 731 b 713 44 265 242 465 44 b 1160 488 959 44 1160 242 b 713 928 1160 731 959 928 m 713 795 b 942 624 838 795 942 731 b 852 494 942 559 903 517 b 957 358 910 471 957 428 b 713 187 957 251 847 187 b 468 358 579 187 468 251 b 573 494 468 428 514 471 b 483 624 522 517 483 559 b 713 795 483 731 587 795 m 713 436 b 640 377 671 436 640 414 b 713 319 640 341 671 319 b 785 377 754 319 785 341 b 713 436 785 414 754 436 m 713 663 b 650 610 676 663 650 642 b 713 556 650 577 676 556 b 776 610 749 556 776 577 b 713 663 776 642 749 663 "},"⑨":{"ha":1424,"x_min":0,"x_max":0,"o":"m 713 1122 b 1363 488 1072 1122 1363 837 b 713 -149 1363 137 1072 -149 b 62 488 352 -149 62 137 b 713 1122 62 837 352 1122 m 713 928 b 265 488 465 928 265 731 b 713 44 265 242 465 44 b 1160 488 959 44 1160 242 b 713 928 1160 731 959 928 m 697 391 b 482 586 557 392 482 479 b 721 795 482 707 585 795 b 960 592 856 795 960 710 b 897 420 960 535 937 477 l 744 198 l 556 198 m 721 519 b 794 588 764 519 794 549 b 721 656 794 628 764 656 b 647 588 678 656 647 628 b 721 519 647 549 678 519 "},"⓪":{"ha":1424,"x_min":0,"x_max":0,"o":"m 713 1122 b 1363 488 1072 1122 1363 837 b 713 -149 1363 137 1072 -149 b 62 488 352 -149 62 137 b 713 1122 62 837 352 1122 m 713 928 b 265 488 465 928 265 731 b 713 44 265 242 465 44 b 1160 488 959 44 1160 242 b 713 928 1160 731 959 928 m 712 795 b 981 491 863 795 981 681 b 712 187 981 301 863 187 b 443 491 562 187 443 301 b 712 795 443 681 562 795 m 712 644 b 606 490 651 644 606 592 b 712 337 606 390 651 337 b 818 490 772 337 818 390 b 712 644 818 592 772 644 "},"⓿":{"ha":1424,"x_min":0,"x_max":0,"o":"m 712 795 b 443 491 562 795 443 681 b 712 187 443 301 562 187 b 981 491 863 187 981 301 b 712 795 981 681 863 795 m 712 644 b 818 490 772 644 818 592 b 712 337 818 390 772 337 b 606 490 651 337 606 390 b 712 644 606 592 651 644 m 713 1105 b 1345 488 1063 1105 1345 827 b 713 -133 1345 146 1063 -133 b 79 488 362 -133 79 146 b 713 1105 79 827 362 1105 "},"■":{"ha":1250,"x_min":0,"x_max":0,"o":"m 1111 972 l 1111 0 l 139 0 l 139 972 "},"□":{"ha":1250,"x_min":0,"x_max":0,"o":"m 1111 972 l 1111 0 l 139 0 l 139 972 m 335 197 l 915 197 l 915 776 l 335 776 "},"▌":{"ha":1250,"x_min":0,"x_max":0,"o":"m 625 972 l 625 0 l 139 0 l 139 972 "},"▲":{"ha":1250,"x_min":0,"x_max":0,"o":"m 1194 0 l 56 0 l 625 986 "},"△":{"ha":1250,"x_min":0,"x_max":0,"o":"m 1194 0 l 56 0 l 625 986 m 395 197 l 855 197 l 625 594 "},"▴":{"ha":833,"x_min":0,"x_max":0,"o":"m 747 172 l 87 172 l 417 743 "},"▸":{"ha":833,"x_min":0,"x_max":0,"o":"m 174 126 l 174 788 l 745 457 "},"▼":{"ha":1250,"x_min":0,"x_max":0,"o":"m 56 972 l 1194 972 l 625 -14 "},"▽":{"ha":1250,"x_min":0,"x_max":0,"o":"m 56 972 l 1194 972 l 625 -14 m 855 776 l 395 776 l 625 378 "},"▾":{"ha":833,"x_min":0,"x_max":0,"o":"m 86 742 l 747 742 l 416 172 "},"◂":{"ha":833,"x_min":0,"x_max":0,"o":"m 659 788 l 659 126 l 88 457 "},"◆":{"ha":1250,"x_min":0,"x_max":0,"o":"m 1138 486 l 625 -26 l 113 486 l 625 999 "},"◇":{"ha":1250,"x_min":0,"x_max":0,"o":"m 1138 486 l 625 -26 l 113 486 l 625 999 m 390 486 l 625 251 l 860 486 l 625 721 "},"◊":{"ha":1061,"x_min":0,"x_max":0,"o":"m 629 0 l 431 0 l 44 486 l 432 972 l 630 972 l 1017 486 m 527 759 l 315 488 l 535 213 l 748 484 "},"○":{"ha":1250,"x_min":0,"x_max":0,"o":"m 625 -27 b 112 486 341 -27 112 203 b 625 999 112 769 341 999 b 1138 486 908 999 1138 769 b 625 -27 1138 203 908 -27 m 625 169 b 942 486 800 169 942 311 b 625 803 942 661 800 803 b 308 486 449 803 308 661 b 625 169 308 311 449 169 "},"●":{"ha":1250,"x_min":0,"x_max":0,"o":"m 625 -27 b 112 486 341 -27 112 203 b 625 999 112 769 341 999 b 1138 486 908 999 1138 769 b 625 -27 1138 203 908 -27 "},"◐":{"ha":1250,"x_min":0,"x_max":0,"o":"m 625 -27 b 112 486 341 -27 112 203 b 625 999 112 769 341 999 b 1138 486 908 999 1138 769 b 625 -27 1138 203 908 -27 m 625 169 b 942 486 800 169 942 311 b 625 803 942 661 800 803 "},"◖":{"ha":1250,"x_min":0,"x_max":0,"o":"m 625 -27 b 112 486 341 -27 112 203 b 625 999 112 769 341 999 "},"◧":{"ha":1250,"x_min":0,"x_max":0,"o":"m 1111 972 l 1111 0 l 139 0 l 139 972 m 625 197 l 915 197 l 915 776 l 625 776 "},"☐":{"ha":1528,"x_min":0,"x_max":0,"o":"m 1352 1074 l 1352 -102 l 176 -102 l 176 1074 m 335 58 l 1192 58 l 1192 915 l 335 915 "},"☑":{"ha":1528,"x_min":0,"x_max":0,"o":"m 1352 1074 l 1352 -102 l 176 -102 l 176 1074 m 335 58 l 1192 58 l 1192 915 l 335 915 m 1132 751 l 689 126 l 401 425 l 508 530 l 670 360 l 1009 838 "},"☒":{"ha":1528,"x_min":0,"x_max":0,"o":"m 1352 -102 l 176 -102 l 176 1074 l 1352 1074 m 335 915 l 335 58 l 1192 58 l 1192 915 m 658 486 l 438 706 l 544 813 l 764 592 l 984 813 l 1090 706 l 870 486 l 1090 266 l 984 160 l 764 380 l 544 160 l 438 266 "},"♥":{"ha":1250,"x_min":0,"x_max":0,"o":"m 849 885 b 1078 652 981 885 1078 785 b 625 60 1078 457 867 230 b 172 652 383 230 172 457 b 401 885 172 785 269 885 b 625 709 519 885 625 804 b 849 885 625 804 731 885 "},"✓":{"ha":1528,"x_min":0,"x_max":0,"o":"m 1221 815 l 656 53 l 308 432 l 444 558 l 641 344 l 1072 926 "},"╳":{"ha":1531,"x_min":0,"x_max":0,"o":"m 1555 -155 l 1407 -303 l 766 338 l 124 -303 l -24 -155 l 617 486 l -24 1127 l 124 1276 l 766 634 l 1407 1276 l 1555 1127 l 914 486 "},"✗":{"ha":1528,"x_min":0,"x_max":0,"o":"m 1171 210 l 1040 79 l 764 355 l 488 79 l 357 210 l 633 486 l 357 762 l 488 893 l 764 617 l 1040 893 l 1171 762 l 895 486 "},"❶":{"ha":1424,"x_min":0,"x_max":0,"o":"m 525 688 l 525 535 l 656 581 l 656 198 l 813 198 l 813 793 m 713 1105 b 1345 488 1063 1105 1345 827 b 713 -133 1345 146 1063 -133 b 79 488 362 -133 79 146 b 713 1105 79 827 362 1105 "},"❷":{"ha":1424,"x_min":0,"x_max":0,"o":"m 570 581 b 692 645 604 614 640 645 b 760 584 730 645 760 622 b 719 507 760 558 747 532 l 515 321 l 515 198 l 935 198 l 935 342 l 736 342 l 823 419 b 923 604 897 485 923 535 b 711 795 923 720 838 795 b 481 689 593 795 522 737 m 713 1105 b 1345 488 1063 1105 1345 827 b 713 -133 1345 146 1063 -133 b 79 488 362 -133 79 146 b 713 1105 79 827 362 1105 "},"❸":{"ha":1424,"x_min":0,"x_max":0,"o":"m 713 1105 b 1345 488 1063 1105 1345 827 b 713 -133 1345 146 1063 -133 b 79 488 362 -133 79 146 b 713 1105 79 827 362 1105 m 706 795 b 494 708 607 795 542 758 l 577 605 b 699 658 604 633 644 658 b 773 610 744 658 773 642 b 690 558 773 577 738 558 l 623 558 l 623 430 l 689 430 b 783 375 740 430 783 411 b 700 323 783 340 745 323 b 578 374 653 323 612 341 l 492 274 b 708 187 541 218 616 187 b 946 362 831 187 946 243 b 849 493 946 422 910 468 b 933 624 903 519 933 564 b 706 795 933 728 839 795 "},"❹":{"ha":1424,"x_min":0,"x_max":0,"o":"m 713 1105 b 1345 488 1063 1105 1345 827 b 713 -133 1345 146 1063 -133 b 79 488 362 -133 79 146 b 713 1105 79 827 362 1105 m 768 588 l 719 487 l 719 431 l 641 431 l 812 784 l 641 784 l 456 398 l 456 292 l 719 292 l 719 198 l 876 198 l 876 292 l 945 292 l 945 431 l 876 431 l 876 588 "},"❺":{"ha":1424,"x_min":0,"x_max":0,"o":"m 547 784 l 539 437 l 689 437 b 784 383 756 437 784 416 b 711 328 784 349 760 328 b 564 381 651 328 591 360 l 492 263 b 712 187 540 221 618 187 b 947 394 850 187 947 270 b 724 568 947 501 866 568 l 678 568 l 680 641 l 908 641 l 908 784 m 713 1105 b 1345 488 1063 1105 1345 827 b 713 -133 1345 146 1063 -133 b 79 488 362 -133 79 146 b 713 1105 79 827 362 1105 "},"❻":{"ha":1424,"x_min":0,"x_max":0,"o":"m 713 1105 b 1345 488 1063 1105 1345 827 b 713 -133 1345 146 1063 -133 b 79 488 362 -133 79 146 b 713 1105 79 827 362 1105 m 686 784 l 533 561 b 470 390 493 503 470 447 b 709 187 470 272 574 187 b 948 396 844 187 948 274 b 732 591 948 502 872 590 l 874 784 m 709 463 b 783 394 751 463 783 433 b 709 325 783 354 751 325 b 635 394 666 325 635 354 b 709 463 635 433 666 463 "},"❼":{"ha":1424,"x_min":0,"x_max":0,"o":"m 508 784 l 508 640 l 765 640 l 535 198 l 723 198 l 951 661 l 951 784 m 713 1105 b 1345 488 1063 1105 1345 827 b 713 -133 1345 146 1063 -133 b 79 488 362 -133 79 146 b 713 1105 79 827 362 1105 "},"❽":{"ha":1424,"x_min":0,"x_max":0,"o":"m 713 1105 b 1345 488 1063 1105 1345 827 b 713 -133 1345 146 1063 -133 b 79 488 362 -133 79 146 b 713 1105 79 827 362 1105 m 713 795 b 483 624 587 795 483 731 b 573 494 483 559 522 517 b 468 358 514 471 468 428 b 713 187 468 251 579 187 b 957 358 847 187 957 251 b 852 494 957 428 910 471 b 942 624 903 517 942 559 b 713 795 942 731 838 795 m 713 436 b 785 377 754 436 785 414 b 713 319 785 341 754 319 b 640 377 671 319 640 341 b 713 436 640 414 671 436 m 713 663 b 776 610 749 663 776 642 b 713 556 776 577 749 556 b 650 610 676 556 650 577 b 713 663 650 642 676 663 "},"❾":{"ha":1424,"x_min":0,"x_max":0,"o":"m 713 1105 b 1345 488 1063 1105 1345 827 b 713 -133 1345 146 1063 -133 b 79 488 362 -133 79 146 b 713 1105 79 827 362 1105 m 744 198 l 897 420 b 960 592 937 477 960 535 b 721 795 960 710 856 795 b 482 586 585 795 482 707 b 697 391 482 479 557 392 l 556 198 m 721 519 b 647 588 678 519 647 549 b 721 656 647 628 678 656 b 794 588 764 656 794 628 b 721 519 794 549 764 519 "},"➊":{"ha":1424,"x_min":0,"x_max":0,"o":"m 525 688 l 525 535 l 656 581 l 656 198 l 813 198 l 813 793 m 713 1105 b 1345 488 1063 1105 1345 827 b 713 -133 1345 146 1063 -133 b 79 488 362 -133 79 146 b 713 1105 79 827 362 1105 "},"➋":{"ha":1424,"x_min":0,"x_max":0,"o":"m 570 581 b 692 645 604 614 640 645 b 760 584 730 645 760 622 b 719 507 760 558 747 532 l 515 321 l 515 198 l 935 198 l 935 342 l 736 342 l 823 419 b 923 604 897 485 923 535 b 711 795 923 720 838 795 b 481 689 593 795 522 737 m 713 1105 b 1345 488 1063 1105 1345 827 b 713 -133 1345 146 1063 -133 b 79 488 362 -133 79 146 b 713 1105 79 827 362 1105 "},"➌":{"ha":1424,"x_min":0,"x_max":0,"o":"m 713 1105 b 1345 488 1063 1105 1345 827 b 713 -133 1345 146 1063 -133 b 79 488 362 -133 79 146 b 713 1105 79 827 362 1105 m 706 795 b 494 708 607 795 542 758 l 577 605 b 699 658 604 633 644 658 b 773 610 744 658 773 642 b 690 558 773 577 738 558 l 623 558 l 623 430 l 689 430 b 783 375 740 430 783 411 b 700 323 783 340 745 323 b 578 374 653 323 612 341 l 492 274 b 708 187 541 218 616 187 b 946 362 831 187 946 243 b 849 493 946 422 910 468 b 933 624 903 519 933 564 b 706 795 933 728 839 795 "},"➍":{"ha":1424,"x_min":0,"x_max":0,"o":"m 713 1105 b 1345 488 1063 1105 1345 827 b 713 -133 1345 146 1063 -133 b 79 488 362 -133 79 146 b 713 1105 79 827 362 1105 m 768 588 l 719 487 l 719 431 l 641 431 l 812 784 l 641 784 l 456 398 l 456 292 l 719 292 l 719 198 l 876 198 l 876 292 l 945 292 l 945 431 l 876 431 l 876 588 "},"➎":{"ha":1424,"x_min":0,"x_max":0,"o":"m 547 784 l 539 437 l 689 437 b 784 383 756 437 784 416 b 711 328 784 349 760 328 b 564 381 651 328 591 360 l 492 263 b 712 187 540 221 618 187 b 947 394 850 187 947 270 b 724 568 947 501 866 568 l 678 568 l 680 641 l 908 641 l 908 784 m 713 1105 b 1345 488 1063 1105 1345 827 b 713 -133 1345 146 1063 -133 b 79 488 362 -133 79 146 b 713 1105 79 827 362 1105 "},"➏":{"ha":1424,"x_min":0,"x_max":0,"o":"m 713 1105 b 1345 488 1063 1105 1345 827 b 713 -133 1345 146 1063 -133 b 79 488 362 -133 79 146 b 713 1105 79 827 362 1105 m 686 784 l 533 561 b 470 390 493 503 470 447 b 709 187 470 272 574 187 b 948 396 844 187 948 274 b 732 591 948 502 872 590 l 874 784 m 709 463 b 783 394 751 463 783 433 b 709 325 783 354 751 325 b 635 394 666 325 635 354 b 709 463 635 433 666 463 "},"➐":{"ha":1424,"x_min":0,"x_max":0,"o":"m 508 784 l 508 640 l 765 640 l 535 198 l 723 198 l 951 661 l 951 784 m 713 1105 b 1345 488 1063 1105 1345 827 b 713 -133 1345 146 1063 -133 b 79 488 362 -133 79 146 b 713 1105 79 827 362 1105 "},"➑":{"ha":1424,"x_min":0,"x_max":0,"o":"m 713 1105 b 1345 488 1063 1105 1345 827 b 713 -133 1345 146 1063 -133 b 79 488 362 -133 79 146 b 713 1105 79 827 362 1105 m 713 795 b 483 624 587 795 483 731 b 573 494 483 559 522 517 b 468 358 514 471 468 428 b 713 187 468 251 579 187 b 957 358 847 187 957 251 b 852 494 957 428 910 471 b 942 624 903 517 942 559 b 713 795 942 731 838 795 m 713 436 b 785 377 754 436 785 414 b 713 319 785 341 754 319 b 640 377 671 319 640 341 b 713 436 640 414 671 436 m 713 663 b 776 610 749 663 776 642 b 713 556 776 577 749 556 b 650 610 676 556 650 577 b 713 663 650 642 676 663 "},"➒":{"ha":1424,"x_min":0,"x_max":0,"o":"m 713 1105 b 1345 488 1063 1105 1345 827 b 713 -133 1345 146 1063 -133 b 79 488 362 -133 79 146 b 713 1105 79 827 362 1105 m 744 198 l 897 420 b 960 592 937 477 960 535 b 721 795 960 710 856 795 b 482 586 585 795 482 707 b 697 391 482 479 557 392 l 556 198 m 721 519 b 647 588 678 519 647 549 b 721 656 647 628 678 656 b 794 588 764 656 794 628 b 721 519 794 549 764 519 "},"⭑":{"ha":1250,"x_min":0,"x_max":0,"o":"m 1195 633 l 843 377 l 978 -38 l 626 219 l 274 -38 l 408 377 l 55 633 l 492 633 l 626 1049 l 760 633 "},"⭒":{"ha":1250,"x_min":0,"x_max":0,"o":"m 1195 633 l 843 377 l 978 -38 l 626 219 l 274 -38 l 408 377 l 55 633 l 492 633 l 626 1049 l 760 633 m 626 708 l 568 528 l 377 528 l 531 417 l 472 236 l 626 348 l 779 236 l 721 417 l 874 528 l 683 528 "},"⸗":{"ha":582,"x_min":0,"x_max":0,"o":"m 501 508 l 81 355 l 81 526 l 501 679 m 501 246 l 81 92 l 81 263 l 501 417 "},"⸸":{"ha":556,"x_min":0,"x_max":0,"o":"m 360 1000 l 360 713 l 512 713 l 512 553 l 360 553 l 360 400 l 196 400 l 196 553 l 44 553 l 44 713 l 196 713 l 196 1000 "},"":{"ha":1250,"x_min":0,"x_max":0,"o":"m 1195 633 l 843 377 l 978 -38 l 626 219 l 274 -38 l 408 377 l 55 633 l 492 633 l 626 1049 l 760 633 m 626 708 l 626 348 l 779 236 l 721 417 l 874 528 l 683 528 "},"":{"ha":1250,"x_min":0,"x_max":0,"o":"m 274 -38 l 408 377 l 55 633 l 492 633 l 626 1049 l 626 219 "},"ﬀ":{"ha":1169,"x_min":0,"x_max":0,"o":"m 549 489 l 358 489 l 358 0 l 140 0 l 140 489 l 23 489 l 23 681 l 140 681 l 140 734 b 400 1018 140 917 241 1018 b 630 946 506 1018 576 986 l 535 785 b 429 815 503 802 471 815 b 358 729 381 815 358 788 l 358 681 l 549 681 m 1124 489 l 933 489 l 933 0 l 715 0 l 715 489 l 598 489 l 598 681 l 715 681 l 715 734 b 975 1018 715 917 816 1018 b 1205 946 1081 1018 1151 986 l 1110 785 b 1004 815 1078 802 1046 815 b 933 729 956 815 933 788 l 933 681 l 1124 681 "},"ﬁ":{"ha":963,"x_min":0,"x_max":0,"o":"m 522 792 b 429 815 494 806 465 815 b 358 729 381 815 358 788 l 358 681 l 549 681 l 549 489 l 358 489 l 358 0 l 140 0 l 140 489 l 23 489 l 23 681 l 140 681 l 140 734 b 400 1018 140 917 241 1018 b 592 971 483 1018 544 999 m 888 0 l 670 0 l 670 681 l 888 681 m 778 1022 b 908 891 851 1022 908 965 b 778 762 908 818 851 762 b 648 891 704 762 648 818 b 778 1022 648 965 704 1022 "},"ﬂ":{"ha":963,"x_min":0,"x_max":0,"o":"m 522 792 b 429 815 494 806 465 815 b 358 729 381 815 358 788 l 358 681 l 549 681 l 549 489 l 358 489 l 358 0 l 140 0 l 140 489 l 23 489 l 23 681 l 140 681 l 140 734 b 400 1018 140 917 241 1018 b 592 971 483 1018 544 999 m 888 0 l 670 0 l 670 1000 l 888 1000 "},"ﬃ":{"ha":1538,"x_min":0,"x_max":0,"o":"m 549 489 l 358 489 l 358 0 l 140 0 l 140 489 l 23 489 l 23 681 l 140 681 l 140 734 b 400 1018 140 917 241 1018 b 630 946 506 1018 576 986 l 535 785 b 429 815 503 802 471 815 b 358 729 381 815 358 788 l 358 681 l 549 681 m 1097 792 b 1004 815 1069 806 1040 815 b 933 729 956 815 933 788 l 933 681 l 1124 681 l 1124 489 l 933 489 l 933 0 l 715 0 l 715 489 l 598 489 l 598 681 l 715 681 l 715 734 b 975 1018 715 917 816 1018 b 1167 971 1058 1018 1119 999 m 1463 0 l 1245 0 l 1245 681 l 1463 681 m 1353 1022 b 1483 891 1426 1022 1483 965 b 1353 762 1483 818 1426 762 b 1223 891 1279 762 1223 818 b 1353 1022 1223 965 1279 1022 "},"ﬄ":{"ha":1538,"x_min":0,"x_max":0,"o":"m 549 489 l 358 489 l 358 0 l 140 0 l 140 489 l 23 489 l 23 681 l 140 681 l 140 734 b 400 1018 140 917 241 1018 b 630 946 506 1018 576 986 l 535 785 b 429 815 503 802 471 815 b 358 729 381 815 358 788 l 358 681 l 549 681 m 1097 792 b 1004 815 1069 806 1040 815 b 933 729 956 815 933 788 l 933 681 l 1124 681 l 1124 489 l 933 489 l 933 0 l 715 0 l 715 489 l 598 489 l 598 681 l 715 681 l 715 734 b 975 1018 715 917 816 1018 b 1167 971 1058 1018 1119 999 m 1463 0 l 1245 0 l 1245 1000 l 1463 1000 "},"ﬅ":{"ha":1001,"x_min":0,"x_max":0,"o":"m 935 489 l 702 489 l 702 290 b 799 185 702 211 744 185 b 917 227 839 185 883 207 l 992 58 b 750 -18 928 13 860 -18 b 485 262 567 -18 485 91 l 485 489 l 391 489 l 391 681 l 485 681 l 485 709 b 387 824 485 788 444 824 b 290 709 330 824 290 788 l 290 324 l 289 324 l 289 0 l 72 0 l 72 714 b 387 1018 72 924 212 1018 b 702 714 563 1018 702 924 l 702 681 l 935 681 "},"ﬆ":{"ha":1363,"x_min":0,"x_max":0,"o":"m 589 472 b 365 524 522 500 434 524 b 285 483 308 524 285 508 b 395 436 285 453 328 447 l 445 428 b 668 222 591 406 668 336 b 353 -17 668 72 551 -17 b 38 54 236 -17 116 3 l 114 222 b 354 158 182 182 260 158 b 449 203 422 158 449 174 b 342 251 449 229 419 240 l 302 257 b 62 472 138 281 62 349 b 356 699 62 617 171 699 b 649 641 467 699 538 684 m 1297 489 l 1064 489 l 1064 290 b 1160 185 1064 211 1106 185 b 1278 227 1201 185 1244 207 l 1353 58 b 1112 -18 1290 13 1222 -18 b 847 262 929 -18 847 91 l 847 489 l 719 489 l 719 681 l 847 681 l 847 880 l 1064 880 l 1064 681 l 1297 681 "}}}
